<?xml version="1.0" encoding="UTF-8"?>
<svg version="1.1" xmlns="http://www.w3.org/2000/svg" width="903" height="242">
<path d="M0 0 C297.99 0 595.98 0 903 0 C903 79.86 903 159.72 903 242 C605.01 242 307.02 242 0 242 C0 162.14 0 82.28 0 0 Z " fill="#FEFEFD" transform="translate(0,0)"/>
<path d="M0 0 C2.91721268 1.34888816 5.25949026 2.91524725 7.75 4.9375 C11.63828387 7.9079176 15.36016389 9.55065916 20 11 C20.969375 11.350625 21.93875 11.70125 22.9375 12.0625 C34.74223812 15.67619534 46.31746556 16.12584324 58.56617737 15.98346901 C61.01412715 15.95653192 63.46198272 15.9388508 65.91003418 15.92399597 C72.86418357 15.8815365 79.81814619 15.83362546 86.77197266 15.75317383 C91.04228505 15.7044386 95.31234643 15.67559995 99.582901 15.65942955 C101.19993707 15.64958982 102.81694717 15.6324686 104.43382263 15.60764503 C114.11984261 15.46216986 122.56278915 15.43419523 130.33984375 21.96484375 C130.86707031 22.61582031 131.39429688 23.26679688 131.9375 23.9375 C132.48277344 24.58589844 133.02804688 25.23429687 133.58984375 25.90234375 C136.74557658 30.59660561 137.26117594 34.63213454 137.34375 40.2421875 C137.3583728 40.92878448 137.37299561 41.61538147 137.38806152 42.32278442 C137.43431683 44.5067977 137.46863754 46.69072528 137.5 48.875 C137.54144874 51.74771638 137.5952459 54.61982711 137.65625 57.4921875 C137.67494141 58.76433105 137.69363281 60.03647461 137.71289062 61.34716797 C138.01699786 65.21626019 138.81284417 68.32301586 140 72 C143.37705625 71.46274105 146.696686 70.88935377 150 70 C150 69.34 150 68.68 150 68 C150.71027344 67.79503906 151.42054688 67.59007813 152.15234375 67.37890625 C153.07144531 67.10949219 153.99054688 66.84007813 154.9375 66.5625 C155.85402344 66.29566406 156.77054688 66.02882813 157.71484375 65.75390625 C159.9402493 65.20973949 159.9402493 65.20973949 161 64 C167.01500602 63.03623199 172.91609752 62.81710902 179 62.8125 C179.85078125 62.80025391 180.7015625 62.78800781 181.578125 62.77539062 C187.06091513 62.76277684 191.73554405 63.45844056 197 65 C197 65.66 197 66.32 197 67 C198.175625 67.0928125 198.175625 67.0928125 199.375 67.1875 C207.88453174 69.09480884 215.72764553 73.98520598 222 80 C222 80.66 222 81.32 222 82 C222.73605469 82.23976563 223.47210938 82.47953125 224.23046875 82.7265625 C227.39253804 84.18048999 229.01940378 85.77529392 231.3125 88.375 C232.35857422 89.53128906 232.35857422 89.53128906 233.42578125 90.7109375 C235 93 235 93 235 97 C233.94683594 97.17015625 232.89367187 97.3403125 231.80859375 97.515625 C223.26040951 98.93716119 214.98264359 100.6848161 206.63671875 103.03515625 C202.98401196 104.00424173 199.33687682 104.73331758 195.625 105.4375 C187.62673723 107.10229678 181.58192327 109.97152287 176 116 C175.34 116 174.68 116 174 116 C173.75636719 116.56203125 173.51273438 117.1240625 173.26171875 117.703125 C171.75819064 120.44019785 169.93300252 122.45795941 167.8125 124.75 C164.24732642 128.6256887 160.78753119 132.56148752 157.41015625 136.6015625 C156 138 156 138 154 138 C154 138.66 154 139.32 154 140 C153.34 140 152.68 140 152 140 C152 140.66 152 141.32 152 142 C151.195625 142.7425 150.39125 143.485 149.5625 144.25 C146.71287976 147.30812904 146.28527911 148.91099938 146 153 C146.58338135 153.26119629 147.1667627 153.52239258 147.76782227 153.79150391 C150.13470067 155.07292664 151.77593673 156.47569977 153.71484375 158.3359375 C154.40126953 158.98820313 155.08769531 159.64046875 155.79492188 160.3125 C156.85549805 161.3334375 156.85549805 161.3334375 157.9375 162.375 C165.2087419 169.55030752 165.2087419 169.55030752 173.5 175.4375 C176.46160643 177.28850402 178.52579396 179.52579396 181 182 C183.63821027 184.11056822 186.3029564 186.18021343 188.98828125 188.23046875 C189.98408203 189.10638672 189.98408203 189.10638672 191 190 C191 190.66 191 191.32 191 192 C191.598125 192.268125 192.19625 192.53625 192.8125 192.8125 C196.99426177 195.08259925 198.50656132 197.51968395 200 202 C200.5068344 204.03931007 200.99011033 206.0796135 201.4375 208.1328125 C201.99305251 210.30495595 201.99305251 210.30495595 204 213 C204.309375 214.11375 204.61875 215.2275 204.9375 216.375 C205.81334202 219.9584592 205.81334202 219.9584592 207.625 222.625 C209.18970719 225.32767606 209.2631365 226.93007415 209 230 C205 230 205 230 203.48046875 228.5859375 C202.99191406 228.06257812 202.50335938 227.53921875 202 227 C200.06448104 226.27828106 198.12711581 225.56060695 196.17578125 224.8828125 C193.91157458 223.96412182 192.03811515 222.84266363 190 221.5 C186.77346878 219.38889071 183.66495991 218.01230759 180.03125 216.7578125 C176.54397564 215.45679091 173.30233988 213.71014029 170 212 C170 211.34 170 210.68 170 210 C169.42507812 209.88398438 168.85015625 209.76796875 168.2578125 209.6484375 C159.4710642 207.12490771 152.1228393 199.20815864 147 192 C145.82953147 189.08873911 145.07288686 186.39176685 144.5 183.3125 C144.09173572 180.74074357 144.09173572 180.74074357 142 178 C141.77294922 175.9152832 141.77294922 175.9152832 141.8046875 173.55078125 C141.81435547 172.27944336 141.81435547 172.27944336 141.82421875 170.98242188 C141.84935547 169.66081055 141.84935547 169.66081055 141.875 168.3125 C141.88402344 167.41982422 141.89304688 166.52714844 141.90234375 165.60742188 C141.92590252 163.40467686 141.95879671 161.20247412 142 159 C142.66 159 143.32 159 144 159 C144 156.36 144 153.72 144 151 C134.46499557 153.0210371 134.46499557 153.0210371 125.2421875 156.10546875 C122.08158806 157.36640477 118.88643804 158.52847038 115.6875 159.6875 C114.49511719 160.12449219 113.30273438 160.56148437 112.07421875 161.01171875 C109 162 109 162 106 162 C106 160.35 106 158.7 106 157 C105.34 157 104.68 157 104 157 C103.89948164 152.96573413 103.82777486 148.93197455 103.78027344 144.89672852 C103.76042733 143.5303881 103.73334086 142.16412941 103.69824219 140.7980957 C103.45493028 131.06919766 104.62904856 123.11621841 108 114 C108.48832747 112.51649481 108.97436423 111.0322315 109.45703125 109.546875 C114.99257028 93.68503953 114.99257028 93.68503953 121 89 C124.16861648 88.02504108 125.60671916 88.33246934 129 89 C130.33583889 89.99665051 131.66901024 90.99688284 133 92 C141.12558277 95.30790409 149.34804145 95.43043837 158 95.3125 C159.21300781 95.31572266 160.42601562 95.31894531 161.67578125 95.32226562 C168.21098928 95.52722421 168.21098928 95.52722421 174 93 C174.33 92.01 174.66 91.02 175 90 C174.33097656 90.02320312 173.66195312 90.04640625 172.97265625 90.0703125 C160.82810854 90.29853219 148.36542284 89.54616914 137 85 C137 84.34 137 83.68 137 83 C136.27039063 82.90203125 135.54078125 82.8040625 134.7890625 82.703125 C129.10405472 81.26992976 124.2899406 76.91410541 121.0625 72.125 C120.711875 71.42375 120.36125 70.7225 120 70 C119.34 69.67 118.68 69.34 118 69 C116.84743518 66.60621152 115.95292401 64.14828457 115.01171875 61.6640625 C114.42660603 60.12334097 113.81701398 58.59057922 113.14453125 57.0859375 C111.19238817 52.58708999 110.51177777 48.07161795 109.9140625 43.23046875 C109.82487549 42.53449585 109.73568848 41.83852295 109.64379883 41.12145996 C109.42561087 39.41476155 109.21231436 37.70743904 109 36 C108.3935817 36.00222061 107.78716339 36.00444122 107.16236877 36.00672913 C100.81894523 36.02894849 94.47553286 36.04397576 88.13208008 36.05493164 C85.76846873 36.05994306 83.40486046 36.06675396 81.04125977 36.07543945 C77.63296752 36.08764526 74.22471646 36.09326037 70.81640625 36.09765625 C69.76916885 36.10281754 68.72193146 36.10797882 67.64295959 36.11329651 C61.6766413 36.11374699 55.91678137 35.77689678 50 35 C50 34.34 50 33.68 50 33 C48.989375 32.87625 47.97875 32.7525 46.9375 32.625 C29.7508448 29.89695949 15.02561997 20.23590241 3.671875 7.32421875 C1.96749867 4.95481707 0.95350947 2.74863698 0 0 Z " fill="#DC6E37" transform="translate(6,7)"/>
<path d="M0 0 C0.14416782 3.09960805 0.24371113 5.436418 -1 8.3125 C-3.87799807 16.04711982 -1.4097389 24.42343355 1 32 C1.556875 33.093125 2.11375 34.18625 2.6875 35.3125 C4.3331242 38.68211146 4.22203389 41.29943514 4 45 C0.78548731 46.60725635 -2.43612536 46.05748185 -6 46 C-5.91621094 46.78246094 -5.83242187 47.56492188 -5.74609375 48.37109375 C-5.59333984 49.88896484 -5.59333984 49.88896484 -5.4375 51.4375 C-5.28087891 52.95150391 -5.28087891 52.95150391 -5.12109375 54.49609375 C-5.06115234 55.73552734 -5.06115234 55.73552734 -5 57 C-6 58 -6 58 -8.06640625 58.09765625 C-8.89011719 58.08605469 -9.71382812 58.07445312 -10.5625 58.0625 C-11.38878906 58.05347656 -12.21507812 58.04445312 -13.06640625 58.03515625 C-13.70449219 58.02355469 -14.34257812 58.01195312 -15 58 C-14.21869929 60.49552484 -14.21869929 60.49552484 -13 63 C-12.01 63.33 -11.02 63.66 -10 64 C-9.88386796 67.10385211 -9.81277971 70.20714662 -9.75 73.3125 C-9.69972656 74.63411133 -9.69972656 74.63411133 -9.6484375 75.98242188 C-9.63554687 76.82998047 -9.62265625 77.67753906 -9.609375 78.55078125 C-9.58842773 79.33106689 -9.56748047 80.11135254 -9.54589844 80.9152832 C-10 83 -10 83 -11.69873047 84.74438477 C-15.97512419 87.0776643 -20.60435909 86.59533184 -25.375 86.625 C-26.91800781 86.69267578 -26.91800781 86.69267578 -28.4921875 86.76171875 C-35.88437791 86.82840088 -35.88437791 86.82840088 -39.06347656 84.46777344 C-43 80.01346888 -43 80.01346888 -43 77 C-43.66 77 -44.32 77 -45 77 C-48.70142161 73.41046015 -51.86881428 69.28528725 -54.8125 65.0625 C-56.65558265 61.97725546 -56.65558265 61.97725546 -59 61 C-59.43957031 60.25621094 -59.87914062 59.51242188 -60.33203125 58.74609375 C-62.71460657 54.82349317 -65.91393871 51.84099629 -69.13671875 48.59765625 C-71.43092205 45.39923866 -71.51678292 43.86067244 -71 40 C-68.64867993 33.37946284 -64.4474774 27.46190673 -60.63671875 21.609375 C-57.93490207 17.30194411 -55.79656579 12.7448584 -53.6875 8.125 C-50.65903927 4.31138279 -45.46628726 3.98404353 -40.828125 3.4375 C-39.30271261 3.28522533 -37.77661718 3.13968006 -36.25 3 C-34.57288534 2.83625804 -32.89580293 2.67218548 -31.21875 2.5078125 C-30.36152344 2.42563477 -29.50429687 2.34345703 -28.62109375 2.25878906 C-26.0055343 2.00054642 -23.3934995 1.71939186 -20.78125 1.4296875 C-19.93788086 1.336875 -19.09451172 1.2440625 -18.22558594 1.1484375 C-16.61921514 0.97100798 -15.01307775 0.79144733 -13.40722656 0.609375 C-8.90678794 0.12177833 -4.52698299 -0.08383302 0 0 Z " fill="#DB6E36" transform="translate(242,114)"/>
<path d="M0 0 C8.17182364 -0.06983066 16.34352044 -0.1229777 24.51556969 -0.15543652 C28.3111063 -0.17102331 32.1064372 -0.19213188 35.90185547 -0.22631836 C39.57178362 -0.25916373 43.24151522 -0.27690541 46.91157913 -0.28463173 C48.30447097 -0.29013047 49.69735333 -0.30086686 51.09016037 -0.31719017 C71.16208273 -0.54284927 71.16208273 -0.54284927 78.5 6.4375 C79.1290625 7.01371094 79.758125 7.58992188 80.40625 8.18359375 C83.00633335 11.14692404 83.92070186 13.39959981 84.4375 17.3125 C83.87424935 22.05989836 82.39688843 24.67767741 79 28 C70.76482125 33.83169898 59.82833299 35.38173176 50 36 C55.05067317 38.70640542 55.05067317 38.70640542 60.40625 40.6640625 C67.58543055 42.73148475 70.55905346 46.70823089 74.42529297 52.78466797 C77.45833068 57.53398623 80.69329685 61.99914169 86.3359375 63.70703125 C87.34527344 63.75923828 87.34527344 63.75923828 88.375 63.8125 C90.169375 63.9053125 90.169375 63.9053125 92 64 C92 64.99 92 65.98 92 67 C70.08919445 69.02877829 70.08919445 69.02877829 63.98046875 65.99804688 C60.8199663 63.29079478 58.97223801 59.72929505 57.13085938 56.07226562 C54.94219412 52.0616027 52.07978652 48.48529477 49.375 44.8125 C48.33325463 43.36632892 47.2987582 41.91489327 46.2734375 40.45703125 C45.83435059 39.83803955 45.39526367 39.21904785 44.94287109 38.58129883 C44 37 44 37 44 35 C39.38 35 34.76 35 30 35 C30.03302264 38.73155806 30.10022724 42.45714905 30.1875 46.1875 C30.19330078 47.24259766 30.19910156 48.29769531 30.20507812 49.38476562 C30.36003636 55.7055299 30.36003636 55.7055299 33.28125 61.1875 C35.8809207 62.9206138 37.24374501 63.65646161 40.3125 63.8125 C41.529375 63.874375 42.74625 63.93625 44 64 C44 64.99 44 65.98 44 67 C29.48 67 14.96 67 0 67 C0 66.01 0 65.02 0 64 C1.2375 63.9175 2.475 63.835 3.75 63.75 C6.89064211 63.36645256 7.87282539 63.10108751 10.4375 61.0625 C12.75058022 58.00923411 13.12954454 56.31024062 13.16113281 52.5378418 C13.17554413 51.15081306 13.17554413 51.15081306 13.19024658 49.73576355 C13.19449646 48.73370377 13.19874634 47.73164398 13.203125 46.69921875 C13.21167511 45.15642998 13.21167511 45.15642998 13.22039795 43.58247375 C13.22985619 41.40273063 13.23638519 39.22297314 13.24023438 37.04321289 C13.24993017 33.71149648 13.28094216 30.3803994 13.3125 27.04882812 C13.31903093 24.93229533 13.32428105 22.81575813 13.328125 20.69921875 C13.3466452 19.20523811 13.3466452 19.20523811 13.36553955 17.68107605 C13.38313919 10.82780823 13.38313919 10.82780823 10 5 C7.52938081 3.97726136 7.52938081 3.97726136 4.8125 3.6875 C3.91144531 3.54699219 3.01039063 3.40648438 2.08203125 3.26171875 C1.05142578 3.13216797 1.05142578 3.13216797 0 3 C0 2.01 0 1.02 0 0 Z " fill="#050505" transform="translate(489,92)"/>
<path d="M0 0 C9.57 0 19.14 0 29 0 C34.72840691 10.69864231 40.27825429 21.44970226 45.5625 32.375 C46.08682617 33.44999756 46.61115234 34.52499512 47.15136719 35.63256836 C47.63895508 36.64843018 48.12654297 37.66429199 48.62890625 38.7109375 C49.06275635 39.61118652 49.49660645 40.51143555 49.94360352 41.43896484 C50.98572011 43.96538108 51.5635445 46.30857487 52 49 C52.66 49 53.32 49 54 49 C54.37769531 47.75347656 54.75539063 46.50695312 55.14453125 45.22265625 C57.10709528 39.3441511 59.86594605 33.94297113 62.6875 28.4375 C63.75913471 26.32162478 64.83074922 24.20573932 65.90234375 22.08984375 C66.42683105 21.05972168 66.95131836 20.02959961 67.49169922 18.96826172 C69.59839111 14.82239574 71.67510787 10.66183979 73.75 6.5 C74.8225 4.355 75.895 2.21 77 0 C86.24 0 95.48 0 105 0 C105 0.99 105 1.98 105 3 C104.39671875 3.02578125 103.7934375 3.0515625 103.171875 3.078125 C97.95546103 3.4034799 97.95546103 3.4034799 93.5 5.9375 C91.31908731 8.93625496 90.87098921 10.60789192 90.83886719 14.26269531 C90.82925964 15.14411194 90.8196521 16.02552856 90.80975342 16.93365479 C90.80550354 17.88882996 90.80125366 18.84400513 90.796875 19.828125 C90.79117493 20.80988708 90.78547485 21.79164917 90.77960205 22.80316162 C90.77014363 24.88455119 90.76361474 26.96595578 90.75976562 29.04736328 C90.75008157 32.22325029 90.7190748 35.39848432 90.6875 38.57421875 C90.68096782 40.59635032 90.67571819 42.61848653 90.671875 44.640625 C90.6533548 46.06124237 90.6533548 46.06124237 90.63446045 47.51055908 C90.65203417 52.74575959 90.98190338 56.51440473 94 61 C96.90092502 62.93395001 97.89674737 63.30131941 101.1875 63.625 C102.445625 63.74875 103.70375 63.8725 105 64 C105 64.99 105 65.98 105 67 C90.15 67 75.3 67 60 67 C60 66.01 60 65.02 60 64 C60.90492188 63.94392578 60.90492188 63.94392578 61.828125 63.88671875 C68.04305443 63.48699966 68.04305443 63.48699966 73 60 C73.92687325 57.21938025 74.12193396 55.57948141 74.11352539 52.7121582 C74.11344986 51.85149246 74.11337433 50.99082672 74.11329651 50.1040802 C74.10555458 48.71644722 74.10555458 48.71644722 74.09765625 47.30078125 C74.0962413 46.35059616 74.09482635 45.40041107 74.09336853 44.4214325 C74.08776875 41.38508971 74.07521632 38.34882052 74.0625 35.3125 C74.05748497 33.25455836 74.05292207 31.19661556 74.04882812 29.13867188 C74.0377994 24.09241954 74.02053493 19.04622225 74 14 C73.46109131 15.10811035 72.92218262 16.2162207 72.36694336 17.35791016 C70.33434855 21.53683377 68.30073746 25.71526217 66.2668457 29.89355469 C65.39287789 31.6893218 64.51917227 33.48521654 63.64575195 35.28125 C58.48925393 45.88416962 53.30437642 56.47013894 48 67 C47.01 67 46.02 67 45 67 C27.0849937 31.37051701 27.0849937 31.37051701 19 14 C18.87610447 19.87150428 18.78552076 25.74224243 18.7253418 31.61474609 C18.70024728 33.61097473 18.66616374 35.60711193 18.62280273 37.60302734 C18.56192754 40.47776888 18.53373976 43.35129248 18.51171875 46.2265625 C18.48591232 47.11429352 18.4601059 48.00202454 18.43351746 48.91665649 C18.43157772 53.23326612 18.61987964 56.10672248 21.37695312 59.546875 C24.02344265 62.02192403 25.29527526 62.85004108 28.8125 63.375 C29.60269531 63.50648438 30.39289062 63.63796875 31.20703125 63.7734375 C31.79871094 63.84820312 32.39039063 63.92296875 33 64 C33 64.99 33 65.98 33 67 C22.11 67 11.22 67 0 67 C0 66.01 0 65.02 0 64 C1.2375 63.7525 2.475 63.505 3.75 63.25 C7.52201816 62.3086645 9.59576943 61.17358435 12 58 C12.93243571 55.20269287 13.14599872 53.41526332 13.19287109 50.51611328 C13.20893402 49.61152374 13.22499695 48.7069342 13.24154663 47.77493286 C13.28608765 43.64830373 13.32704283 39.52183276 13.35009766 35.39501953 C13.36667278 33.21847859 13.39398305 31.04199242 13.43212891 28.86572266 C13.48687329 25.72529916 13.50876613 22.58614875 13.5234375 19.4453125 C13.55744156 17.98884811 13.55744156 17.98884811 13.59213257 16.50296021 C13.5774622 11.81419741 13.54421444 9.7070179 10.60717773 5.89135742 C8.04728249 4.03430073 6.79043543 3.34527638 3.6875 3.1875 C2.470625 3.125625 1.25375 3.06375 0 3 C0 2.01 0 1.02 0 0 Z " fill="#030303" transform="translate(583,92)"/>
<path d="M0 0 C14.19 0 28.38 0 43 0 C43 0.99 43 1.98 43 3 C39.37 3.66 35.74 4.32 32 5 C31.00544091 7.98367726 30.80440368 10.2004192 30.68359375 13.32421875 C30.64548584 14.25065186 30.60737793 15.17708496 30.56811523 16.1315918 C30.50346069 17.89176636 30.50346069 17.89176636 30.4375 19.6875 C30.293125 23.420625 30.14875 27.15375 30 31 C40.89 31 51.78 31 63 31 C62.9175 27.2875 62.835 23.575 62.75 19.75 C62.72631348 18.00348145 62.72631348 18.00348145 62.70214844 16.22167969 C62.65622559 14.83577637 62.65622559 14.83577637 62.609375 13.421875 C62.58842773 12.47924805 62.56748047 11.53662109 62.54589844 10.56542969 C61.84959118 7.29315928 60.56627719 6.08076529 58 4 C55.89061935 3.31883062 55.89061935 3.31883062 53.75 3.25 C52.5125 3.1675 51.275 3.085 50 3 C50 2.01 50 1.02 50 0 C64.19 0 78.38 0 93 0 C93 0.99 93 1.98 93 3 C92.31292969 3.08636719 91.62585938 3.17273438 90.91796875 3.26171875 C90.01691406 3.40222656 89.11585938 3.54273437 88.1875 3.6875 C87.29417969 3.81511719 86.40085937 3.94273438 85.48046875 4.07421875 C82.89775054 4.81147088 82.89775054 4.81147088 81.36767578 6.89355469 C79.35861313 11.45680231 79.59081608 15.69603869 79.63671875 20.62890625 C79.63622025 21.65555893 79.63572174 22.68221161 79.63520813 23.73997498 C79.63754452 25.90601542 79.64724733 28.07205879 79.66381836 30.23803711 C79.68744031 33.55412034 79.68437208 36.8694007 79.67773438 40.18554688 C79.68331045 42.29167146 79.69041988 44.39779266 79.69921875 46.50390625 C79.69830734 47.49564346 79.69739594 48.48738068 79.69645691 49.50917053 C79.70598892 50.43370529 79.71552094 51.35824005 79.7253418 52.31079102 C79.72994919 53.1217775 79.73455658 53.93276398 79.73930359 54.76832581 C80.03022358 57.25872696 80.69747627 58.86825719 82 61 C85.33341855 63.34573898 89.02472765 63.54131473 93 64 C93 64.99 93 65.98 93 67 C78.81 67 64.62 67 50 67 C50 66.01 50 65.02 50 64 C50.61488281 63.90203125 51.22976563 63.8040625 51.86328125 63.703125 C52.67152344 63.55359375 53.47976563 63.4040625 54.3125 63.25 C55.11300781 63.11078125 55.91351563 62.9715625 56.73828125 62.828125 C59.65773188 61.75917244 60.40012612 60.64698235 62 58 C62.50032958 55.30035844 62.50032958 55.30035844 62.51171875 52.359375 C62.56138794 50.91256348 62.56138794 50.91256348 62.61206055 49.43652344 C62.63695557 48.2199707 62.66185059 47.00341797 62.6875 45.75 C62.790625 41.8725 62.89375 37.995 63 34 C52.11 34 41.22 34 30 34 C30.103125 37.691875 30.20625 41.38375 30.3125 45.1875 C30.33739502 46.3427417 30.36229004 47.4979834 30.38793945 48.68823242 C30.42105225 49.60967041 30.45416504 50.5311084 30.48828125 51.48046875 C30.51446533 52.41785889 30.54064941 53.35524902 30.56762695 54.32104492 C31.07837479 57.48560509 32.122749 59.41877987 34 62 C36.23837799 63.01674712 36.23837799 63.01674712 38.6875 63.3125 C39.49574219 63.45300781 40.30398438 63.59351563 41.13671875 63.73828125 C41.75160156 63.82464844 42.36648438 63.91101563 43 64 C43 64.99 43 65.98 43 67 C28.81 67 14.62 67 0 67 C0 66.01 0 65.02 0 64 C1.2375 63.9175 2.475 63.835 3.75 63.75 C6.89064211 63.36645256 7.87282539 63.10108751 10.4375 61.0625 C12.76727133 57.98720184 13.13418703 56.24803267 13.19287109 52.44604492 C13.20893402 51.50133835 13.22499695 50.55663177 13.24154663 49.58329773 C13.28597262 45.26086107 13.32706033 40.93857833 13.35009766 36.6159668 C13.36666096 34.33558957 13.39395565 32.05526434 13.43212891 29.77514648 C13.48686781 26.4891463 13.50876757 23.20436334 13.5234375 19.91796875 C13.55744156 18.39117744 13.55744156 18.39117744 13.59213257 16.83354187 C13.5823936 10.90437779 13.5823936 10.90437779 10.60717773 5.86181641 C8.05125769 4.03660372 6.77157009 3.34431712 3.6875 3.1875 C2.470625 3.125625 1.25375 3.06375 0 3 C0 2.01 0 1.02 0 0 Z " fill="#030303" transform="translate(311,92)"/>
<path d="M0 0 C23.76 0 47.52 0 72 0 C72 8.58 72 17.16 72 26 C71.01 26 70.02 26 69 26 C68.70867187 25.21496094 68.41734375 24.42992188 68.1171875 23.62109375 C64.25885827 13.13556106 64.25885827 13.13556106 56.06762695 6.08105469 C50.31359764 4.1422754 44.98697376 3.47799689 38.9375 3.3125 C35.988125 3.209375 33.03875 3.10625 30 3 C30 12.9 30 22.8 30 33 C38.4797952 31.55396533 38.4797952 31.55396533 43.78125 26.28515625 C46.1594379 21.82605393 47.07651286 16.93336551 48 12 C49.32 12 50.64 12 52 12 C52 26.52 52 41.04 52 56 C50.68 56 49.36 56 48 56 C47.91363281 55.443125 47.82726562 54.88625 47.73828125 54.3125 C46.66881209 48.50400694 44.92335731 43.51944751 41 39 C37.3282642 36.53279292 34.7883961 36.68405659 30 36 C30 45.24 30 54.48 30 64 C41.74888998 63.64928687 50.52719573 63.31762024 60.8125 57.375 C65.47516079 52.31268257 68.10322153 45.55250745 70 39 C71.32 39 72.64 39 74 39 C74 48.24 74 57.48 74 67 C49.58 67 25.16 67 0 67 C0 66.01 0 65.02 0 64 C0.61488281 63.89042969 1.22976563 63.78085938 1.86328125 63.66796875 C2.67152344 63.50941406 3.47976563 63.35085937 4.3125 63.1875 C5.11300781 63.03667969 5.91351562 62.88585937 6.73828125 62.73046875 C9.29039274 61.90621167 10.35316788 61.09274359 12 59 C12.93726743 56.18819772 13.13613076 54.42877825 13.16113281 51.51611328 C13.17074036 50.61152374 13.1803479 49.7069342 13.19024658 48.77493286 C13.1966214 47.31239578 13.1966214 47.31239578 13.203125 45.8203125 C13.20882507 44.81539764 13.21452515 43.81048279 13.22039795 42.77511597 C13.22984577 40.64842786 13.23638107 38.52172513 13.24023438 36.39501953 C13.24994148 33.14459667 13.28096785 29.89480574 13.3125 26.64453125 C13.31903006 24.57812875 13.32428052 22.51172174 13.328125 20.4453125 C13.3404718 19.47433624 13.3528186 18.50335999 13.36553955 17.50296021 C13.35713951 10.74826607 13.35713951 10.74826607 10 5 C7.52938081 3.97726136 7.52938081 3.97726136 4.8125 3.6875 C3.91144531 3.54699219 3.01039063 3.40648438 2.08203125 3.26171875 C1.05142578 3.13216797 1.05142578 3.13216797 0 3 C0 2.01 0 1.02 0 0 Z " fill="#040404" transform="translate(691,92)"/>
<path d="M0 0 C23.76 0 47.52 0 72 0 C72 8.58 72 17.16 72 26 C71.01 26 70.02 26 69 26 C68.68546875 25.10796875 68.3709375 24.2159375 68.046875 23.296875 C67.61890625 22.12640625 67.1909375 20.9559375 66.75 19.75 C66.33234375 18.58984375 65.9146875 17.4296875 65.484375 16.234375 C64.01338712 13.02916983 62.54312217 11.36923347 60 9 C60 8.34 60 7.68 60 7 C50.382421 2.97580247 40.26106332 3.34203544 30 3 C30 12.9 30 22.8 30 33 C37.7839646 31.9261793 37.7839646 31.9261793 42.4375 27.6875 C42.90542969 27.06230469 43.37335938 26.43710938 43.85546875 25.79296875 C46.58116107 21.52302754 47.66765477 16.85354333 49 12 C49.99 12 50.98 12 52 12 C52 26.52 52 41.04 52 56 C51.01 56 50.02 56 49 56 C48.75765625 55.19175781 48.5153125 54.38351563 48.265625 53.55078125 C45.57307838 44.45767621 45.57307838 44.45767621 39.1875 37.75 C36.26673505 36.67228627 36.26673505 36.67228627 30 36 C30 45.24 30 54.48 30 64 C32.97 63.896875 35.94 63.79375 39 63.6875 C39.91910156 63.66260498 40.83820313 63.63770996 41.78515625 63.61206055 C49.68595803 63.26394417 56.43325294 61.37457741 62.39453125 55.9453125 C66.33302204 51.17312658 68.6746056 45.00657462 70 39 C71.32 39 72.64 39 74 39 C74 48.24 74 57.48 74 67 C49.58 67 25.16 67 0 67 C0 66.01 0 65.02 0 64 C0.68707031 63.91363281 1.37414062 63.82726562 2.08203125 63.73828125 C2.98308594 63.59777344 3.88414062 63.45726562 4.8125 63.3125 C5.70582031 63.18488281 6.59914063 63.05726563 7.51953125 62.92578125 C10.0998848 62.18899667 10.0998848 62.18899667 11.62573242 60.11791992 C13.65703785 55.5093213 13.46775423 51.17311179 13.46875 46.1875 C13.47636353 45.14102295 13.48397705 44.0945459 13.49182129 43.01635742 C13.50260956 40.80747866 13.50548058 38.59854895 13.50097656 36.38964844 C13.50000331 33.01150586 13.54166086 29.63562785 13.5859375 26.2578125 C13.59114398 24.10937973 13.5938327 21.96093908 13.59375 19.8125 C13.61014526 18.80405029 13.62654053 17.79560059 13.64343262 16.7565918 C13.59648733 11.99174684 13.57171387 9.74685546 10.6027832 5.8684082 C8.04806844 4.03450593 6.77514646 3.34449897 3.6875 3.1875 C2.470625 3.125625 1.25375 3.06375 0 3 C0 2.01 0 1.02 0 0 Z " fill="#020202" transform="translate(407,92)"/>
<path d="M0 0 C3.17975301 1.32118909 6.3498015 2.46376987 9.62890625 3.5078125 C10.24765625 2.2703125 10.24765625 2.2703125 10.87890625 1.0078125 C11.74515625 -0.2296875 11.74515625 -0.2296875 12.62890625 -1.4921875 C13.94890625 -1.4921875 15.26890625 -1.4921875 16.62890625 -1.4921875 C16.62890625 6.4278125 16.62890625 14.3478125 16.62890625 22.5078125 C15.30890625 22.5078125 13.98890625 22.5078125 12.62890625 22.5078125 C12.25378906 21.69957031 11.87867188 20.89132813 11.4921875 20.05859375 C7.40613459 11.52625656 3.58566277 5.42639348 -5.37109375 1.5078125 C-11.77671365 -0.63952599 -18.66673349 -1.35358363 -25.37109375 -0.4921875 C-29.281853 1.49749703 -30.94798473 2.87314896 -33.37109375 6.5078125 C-34.03830911 9.42221949 -34.03830911 9.42221949 -33.37109375 12.5078125 C-29.06088949 16.82341593 -25.2480386 18.55878455 -19.41015625 20.04296875 C-18.66075775 20.24836777 -17.91135925 20.45376678 -17.13925171 20.66539001 C-14.76189867 21.31513223 -12.37976568 21.94418781 -9.99609375 22.5703125 C-7.62037172 23.20246746 -5.24617674 23.83929046 -2.87435913 24.48594666 C-1.40528171 24.88570278 0.06610992 25.27709321 1.54013062 25.65821838 C9.6808492 27.85576801 16.1552909 30.60295382 20.625 38.0078125 C22.64898308 43.04808166 21.64633504 47.47946562 19.96484375 52.484375 C16.93199781 58.91854348 10.65018748 62.25369576 4.31640625 64.8828125 C-5.66745267 66.57499198 -14.17587153 65.45493304 -23.48828125 61.640625 C-28.37766109 59.64301845 -32.06630143 58.71209365 -37.37109375 59.5078125 C-39.72432171 62.41193796 -39.72432171 62.41193796 -41.37109375 65.5078125 C-42.36109375 65.5078125 -43.35109375 65.5078125 -44.37109375 65.5078125 C-44.37109375 55.2778125 -44.37109375 45.0478125 -44.37109375 34.5078125 C-43.38109375 34.5078125 -42.39109375 34.5078125 -41.37109375 34.5078125 C-41.09136719 35.29285156 -40.81164062 36.07789063 -40.5234375 36.88671875 C-35.89008746 49.02877753 -30.00936764 53.69861125 -18.48046875 59.125 C-11.82359838 62.08546748 -4.10123434 63.03188117 2.96875 60.75390625 C5.44395645 59.41949262 7.33813045 57.85916659 9.12890625 55.6953125 C9.91599213 52.25181176 9.59820509 49.90035843 8.62890625 46.5078125 C4.53749764 43.2631119 0.69596787 41.69740965 -4.31640625 40.359375 C-5.65495263 39.9896004 -6.99349414 39.61980815 -8.33203125 39.25 C-10.4040312 38.69181666 -12.47710693 38.13786603 -14.55078125 37.5859375 C-38.14255123 31.25864287 -38.14255123 31.25864287 -44.37109375 22.5078125 C-46.34657368 18.55685263 -45.804167 13.8141465 -45.37109375 9.5078125 C-42.75058158 4.0652103 -38.71620442 0.02555781 -33.21875 -2.46875 C-21.32121399 -6.59528599 -11.24900149 -4.68684645 0 0 Z " fill="#050505" transform="translate(820.37109375,94.4921875)"/>
<path d="M0 0 C1.4540625 0.0309375 1.4540625 0.0309375 2.9375 0.0625 C2.9375 0.3925 2.9375 0.7225 2.9375 1.0625 C1.2875 1.0625 -0.3625 1.0625 -2.0625 1.0625 C-2.3925 2.3825 -2.7225 3.7025 -3.0625 5.0625 C1.2275 5.0625 5.5175 5.0625 9.9375 5.0625 C9.9375 5.3925 9.9375 5.7225 9.9375 6.0625 C8.00197266 6.24425781 8.00197266 6.24425781 6.02734375 6.4296875 C4.30986253 6.59862008 2.59241642 6.76790987 0.875 6.9375 C0.02744141 7.01613281 -0.82011719 7.09476562 -1.69335938 7.17578125 C-9.04413389 7.91203072 -9.04413389 7.91203072 -16.0625 10.0625 C-17.86887242 12.37447316 -17.86887242 12.37447316 -18.9375 15.3125 C-21.46623194 20.9765869 -24.4363177 25.96175561 -27.90380859 31.07714844 C-31.56407394 36.56512671 -35.28577119 42.27154597 -34.0625 49.0625 C-32.28070219 51.36206049 -30.62705964 53.24884821 -28.5625 55.25 C-26.65273853 57.14333846 -24.85248965 59.04876164 -23.0625 61.0625 C-23.0625 62.0525 -23.0625 63.0425 -23.0625 64.0625 C-22.0725 64.3925 -21.0825 64.7225 -20.0625 65.0625 C-18.37890625 66.98828125 -18.37890625 66.98828125 -16.625 69.375 C-14.79518198 71.85159933 -13.04734547 74.07728166 -10.83984375 76.23046875 C-9.0625 78.0625 -9.0625 78.0625 -9.0625 80.0625 C-8.4025 80.0625 -7.7425 80.0625 -7.0625 80.0625 C-6.23596388 81.36788623 -5.44339099 82.6948685 -4.66796875 84.03125 C-2.70714897 86.73221523 -1.73698952 87.89092712 1.53271484 88.72265625 C4.5963771 88.84986004 7.56530939 88.76100769 10.625 88.5625 C11.66978516 88.52640625 12.71457031 88.4903125 13.79101562 88.453125 C15.72169274 88.38350625 17.65189798 88.29742166 19.58081055 88.18945312 C21.36428923 88.09337844 23.15143546 88.0625 24.9375 88.0625 C23.18726105 90.28425281 22.33521408 91.00725643 19.4855957 91.40307617 C18.53773193 91.38736572 17.58986816 91.37165527 16.61328125 91.35546875 C15.58525391 91.34580078 14.55722656 91.33613281 13.49804688 91.32617188 C12.42619141 91.30103516 11.35433594 91.27589844 10.25 91.25 C9.16654297 91.23646484 8.08308594 91.22292969 6.96679688 91.20898438 C4.28986595 91.17360643 1.61393162 91.12424189 -1.0625 91.0625 C-0.5675 94.5275 -0.5675 94.5275 -0.0625 98.0625 C-2.0625 97.0625 -2.0625 97.0625 -2.875 94.75 C-4.32452567 91.46949454 -6.25019932 90.20872947 -9.0625 88.0625 C-9.0625 87.4025 -9.0625 86.7425 -9.0625 86.0625 C-9.60648438 85.82402344 -10.15046875 85.58554688 -10.7109375 85.33984375 C-13.66335583 83.7361215 -16.09112034 81.75599086 -18.6875 79.625 C-19.64914063 78.84253906 -20.61078125 78.06007813 -21.6015625 77.25390625 C-24.0625 75.0625 -24.0625 75.0625 -26.0625 72.0625 C-27.71953928 71.04662667 -29.38745326 70.04839867 -31.0625 69.0625 C-32.65857777 67.72662314 -34.22003289 66.34861016 -35.75 64.9375 C-36.61109375 64.14988281 -37.4721875 63.36226562 -38.359375 62.55078125 C-39.25140625 61.72964844 -40.1434375 60.90851563 -41.0625 60.0625 C-42.8723216 58.41372185 -44.68472433 56.7677714 -46.5 55.125 C-47.30308594 54.39410156 -48.10617188 53.66320312 -48.93359375 52.91015625 C-51.12542965 50.92922419 -51.12542965 50.92922419 -54.0625 49.0625 C-54.6689977 45.16358622 -54.35914155 43.51735038 -52.1875 40.1875 C-51.48625 39.48625 -50.785 38.785 -50.0625 38.0625 C-49.4025 38.0625 -48.7425 38.0625 -48.0625 38.0625 C-48.0625 37.4025 -48.0625 36.7425 -48.0625 36.0625 C-47.4025 36.0625 -46.7425 36.0625 -46.0625 36.0625 C-46.0625 35.4025 -46.0625 34.7425 -46.0625 34.0625 C-44.44563951 32.34747298 -42.76897125 30.68838789 -41.0625 29.0625 C-34.25115933 22.67523364 -34.25115933 22.67523364 -28.5 15.375 C-24.50347063 9.38020594 -17.70746705 4.6627045 -11.0625 2.0625 C-8.73652489 1.6811926 -6.40337842 1.33789746 -4.0625 1.0625 C-3.0625 0.0625 -3.0625 0.0625 0 0 Z " fill="#FCF8F3" transform="translate(206.0625,110.9375)"/>
<path d="M0 0 C3.42935027 0.31900933 5.46900211 0.5295458 8.08984375 2.8515625 C12.07679568 5.79494983 16.13500771 6.83040673 20.875 8.125 C21.72835937 8.37636719 22.58171875 8.62773438 23.4609375 8.88671875 C37.09625678 12.71663931 50.87851626 13.3359002 64.9375 13.625 C66.50717975 13.66332052 68.07684165 13.70237949 69.64648438 13.7421875 C73.43083899 13.83659681 77.21529039 13.92115856 81 14 C81.20496094 14.63808594 81.40992187 15.27617188 81.62109375 15.93359375 C81.89050781 16.75988281 82.15992187 17.58617188 82.4375 18.4375 C82.70433594 19.26121094 82.97117187 20.08492187 83.24609375 20.93359375 C83.82155494 22.96219588 83.82155494 22.96219588 85 24 C85.04063832 25.66617115 85.042721 27.33388095 85 29 C79.89136104 29.0246501 74.78275641 29.04283607 69.67407227 29.05493164 C67.93480832 29.05997204 66.19554864 29.0668043 64.45629883 29.07543945 C61.96174063 29.08751792 59.46723827 29.09323108 56.97265625 29.09765625 C56.19036148 29.10281754 55.40806671 29.10797882 54.60206604 29.11329651 C52.73432886 29.11349226 50.86670796 29.06199694 49 29 C48.67 28.67 48.34 28.34 48 28 C46.56893748 27.69698676 45.12944479 27.43357351 43.6875 27.1875 C31.79512859 24.8496834 20.6397308 20.84124056 12 12 C11.21625 11.54625 10.4325 11.0925 9.625 10.625 C6.60100712 8.75300441 4.37128251 6.64228623 2 4 C2 3.34 2 2.68 2 2 C1.34 2 0.68 2 0 2 C0 1.34 0 0.68 0 0 Z " fill="#DD6E3B" transform="translate(25,41)"/>
<path d="M0 0 C3.96 -0.0825 7.92 -0.165 12 -0.25 C13.84851563 -0.30462402 13.84851563 -0.30462402 15.734375 -0.36035156 C22.66502478 -0.42992739 27.12425362 0.2514401 33 4 C36.0352394 7.13009063 36.29143784 10.15911831 36.5625 14.375 C36.4264623 19.4151968 35.23108928 22.03484363 31.80078125 25.66015625 C27.76210621 28.66507065 23.99201398 29.24607194 19.04296875 29.1953125 C18.04031982 29.19031738 17.0376709 29.18532227 16.00463867 29.18017578 C14.11515503 29.15286377 14.11515503 29.15286377 12.1875 29.125 C6.1546875 29.063125 6.1546875 29.063125 0 29 C0 19.43 0 9.86 0 0 Z " fill="#FCFCFC" transform="translate(519,95)"/>
<path d="M0 0 C2.38564077 0.57584432 4.66682784 1.22227595 7 2 C7 2.66 7 3.32 7 4 C7.804375 4.2475 8.60875 4.495 9.4375 4.75 C13 6 13 6 14.734375 6.91796875 C25.42385404 12.49787681 37.91139509 13.06112598 49.73828125 13.125 C50.51115479 13.13255814 51.28402832 13.14011627 52.08032227 13.14790344 C55.99454395 13.18315509 59.90039304 13.17464996 63.81396484 13.09448242 C76.00823157 13.02442622 76.00823157 13.02442622 81.05078125 17.86328125 C83.34551401 20.58360197 84 21.38425041 84 25 C63.20947823 28.12487842 40.0391817 27.65071469 21 18 C19.98164062 17.484375 18.96328125 16.96875 17.9140625 16.4375 C10.94573599 12.6461687 5.00971129 8.21153596 0 2 C0 1.34 0 0.68 0 0 Z " fill="#DC6732" transform="translate(39,66)"/>
<path d="M0 0 C3.17975301 1.32118909 6.3498015 2.46376987 9.62890625 3.5078125 C10.24765625 2.2703125 10.24765625 2.2703125 10.87890625 1.0078125 C11.74515625 -0.2296875 11.74515625 -0.2296875 12.62890625 -1.4921875 C13.94890625 -1.4921875 15.26890625 -1.4921875 16.62890625 -1.4921875 C16.62890625 6.4278125 16.62890625 14.3478125 16.62890625 22.5078125 C15.30890625 22.5078125 13.98890625 22.5078125 12.62890625 22.5078125 C12.25378906 21.69957031 11.87867188 20.89132813 11.4921875 20.05859375 C7.40613459 11.52625656 3.58566277 5.42639348 -5.37109375 1.5078125 C-13.41484211 -1.18867132 -22.54109001 -2.04103811 -30.37109375 1.5078125 C-30.70109375 0.5178125 -31.03109375 -0.4721875 -31.37109375 -1.4921875 C-31.04109375 -2.1521875 -30.71109375 -2.8121875 -30.37109375 -3.4921875 C-19.46907329 -6.45490354 -10.08278331 -4.19573474 0 0 Z " fill="#121212" transform="translate(820.37109375,94.4921875)"/>
<path d="M0 0 C3.42935027 0.31900933 5.46900211 0.5295458 8.08984375 2.8515625 C12.07679568 5.79494983 16.13500771 6.83040673 20.875 8.125 C21.72835937 8.37636719 22.58171875 8.62773438 23.4609375 8.88671875 C37.09625678 12.71663931 50.87851626 13.3359002 64.9375 13.625 C66.50717975 13.66332052 68.07684165 13.70237949 69.64648438 13.7421875 C73.43083899 13.83659681 77.21529039 13.92115856 81 14 C81 14.33 81 14.66 81 15 C65.16 15 49.32 15 33 15 C33 14.34 33 13.68 33 13 C31.37509046 12.97301811 29.75005367 12.95361243 28.125 12.9375 C27.22007813 12.92589844 26.31515625 12.91429687 25.3828125 12.90234375 C22.9831415 12.83750743 22.9831415 12.83750743 21 14 C21 15.32 21 16.64 21 18 C16.99912001 16.66637334 14.90716186 14.99801067 12 12 C11.195625 11.525625 10.39125 11.05125 9.5625 10.5625 C6.55057391 8.7259597 4.35142951 6.62016431 2 4 C2 3.34 2 2.68 2 2 C1.34 2 0.68 2 0 2 C0 1.34 0 0.68 0 0 Z " fill="#DA7042" transform="translate(25,41)"/>
<path d="M0 0 C0.33 0.66 0.66 1.32 1 2 C2.77903078 2.63730634 2.77903078 2.63730634 4.9296875 3.03515625 C5.72503906 3.20466797 6.52039063 3.37417969 7.33984375 3.54882812 C8.17644531 3.71833984 9.01304688 3.88785156 9.875 4.0625 C11.51849588 4.40627947 13.16173634 4.75128286 14.8046875 5.09765625 C15.53671387 5.24726807 16.26874023 5.39687988 17.02294922 5.55102539 C19 6 19 6 22 7 C24.588563 7.10873244 27.14937372 7.16402907 29.73828125 7.16796875 C30.87586128 7.17296135 30.87586128 7.17296135 32.03642273 7.17805481 C33.64105626 7.18311525 35.2457003 7.18546341 36.8503418 7.18530273 C39.29298496 7.18748258 41.73517149 7.20562892 44.17773438 7.22460938 C45.7395818 7.2275449 47.30143135 7.22952863 48.86328125 7.23046875 C49.58848465 7.23765427 50.31368805 7.24483978 51.06086731 7.25224304 C55.44344313 7.23271834 58.90947648 6.52583902 63 5 C66.25 4.6875 66.25 4.6875 69 5 C71.28240525 8.42360788 71.33763381 10.07740857 71.5625 14.125 C71.67464844 15.85363281 71.67464844 15.85363281 71.7890625 17.6171875 C71.89347656 19.29167969 71.89347656 19.29167969 72 21 C72.22756221 24.04259098 72.54673021 26.97820139 73 30 C73.66 30.33 74.32 30.66 75 31 C74.01 31 73.02 31 72 31 C71.51402847 29.02249322 71.03661243 27.0428835 70.5625 25.0625 C70.29566406 23.96035156 70.02882813 22.85820313 69.75390625 21.72265625 C69.17621548 18.87012101 68.75895868 16.15139554 68.45288086 13.26733398 C68.36687119 12.46561264 68.28086151 11.6638913 68.19224548 10.83787537 C68.09708397 9.92812706 68.09708397 9.92812706 68 9 C67.3935817 9.00222061 66.78716339 9.00444122 66.16236877 9.00672913 C59.81894523 9.02894849 53.47553286 9.04397576 47.13208008 9.05493164 C44.76846873 9.05994306 42.40486046 9.06675396 40.04125977 9.07543945 C36.63296752 9.08764526 33.22471646 9.09326037 29.81640625 9.09765625 C28.76916885 9.10281754 27.72193146 9.10797882 26.64295959 9.11329651 C20.6766413 9.11374699 14.91678137 8.77689678 9 8 C9 7.34 9 6.68 9 6 C7.4840625 5.814375 7.4840625 5.814375 5.9375 5.625 C0.78035551 4.80640564 -3.62776703 3.91482198 -8 1 C-7.05125 1.020625 -6.1025 1.04125 -5.125 1.0625 C-2.09333717 1.22551826 -2.09333717 1.22551826 0 0 Z " fill="#D68560" transform="translate(47,34)"/>
<path d="M0 0 C2.04119788 1.61594832 4.04072937 3.2856382 6 5 C6 5.66 6 6.32 6 7 C6.66 7 7.32 7 8 7 C8.82653612 8.30538623 9.61910901 9.6323685 10.39453125 10.96875 C12.35535103 13.66971523 13.32551048 14.82842712 16.59521484 15.66015625 C19.6588771 15.78736004 22.62780939 15.69850769 25.6875 15.5 C26.73228516 15.46390625 27.77707031 15.4278125 28.85351562 15.390625 C30.78419274 15.32100625 32.71439798 15.23492166 34.64331055 15.12695312 C36.42678923 15.03087844 38.21393546 15 40 15 C38.24976105 17.22175281 37.39771408 17.94475643 34.5480957 18.34057617 C33.60023193 18.32486572 32.65236816 18.30915527 31.67578125 18.29296875 C30.64775391 18.28330078 29.61972656 18.27363281 28.56054688 18.26367188 C26.95276367 18.2259668 26.95276367 18.2259668 25.3125 18.1875 C24.22904297 18.17396484 23.14558594 18.16042969 22.02929688 18.14648438 C19.35236595 18.11110643 16.67643162 18.06174189 14 18 C14.33 20.31 14.66 22.62 15 25 C13 24 13 24 12.1875 21.6875 C10.73797433 18.40699454 8.81230068 17.14622947 6 15 C6 14.34 6 13.68 6 13 C5.42765625 12.74476563 4.8553125 12.48953125 4.265625 12.2265625 C1.75826267 10.86912841 -0.1330456 9.28025896 -2.25 7.375 C-2.95640625 6.74335938 -3.6628125 6.11171875 -4.390625 5.4609375 C-4.92171875 4.97882813 -5.4528125 4.49671875 -6 4 C-5.34 3.67 -4.68 3.34 -4 3 C-3.01 3.33 -2.02 3.66 -1 4 C-0.67 2.68 -0.34 1.36 0 0 Z " fill="#FCEADE" transform="translate(191,184)"/>
<path d="M0 0 C3.71599191 -0.20086443 4.77208445 -0.1519437 8 2 C14.79766823 4.16714652 21.4014394 4.42121357 28.5 4.625 C29.60859375 4.66367188 30.7171875 4.70234375 31.859375 4.7421875 C34.57275797 4.83575243 37.28614661 4.92149483 40 5 C40.495 7.475 40.495 7.475 41 10 C38.17200019 13.25554805 36.37999538 14.78385339 32.05712891 15.4609375 C28.46431994 15.60205577 24.90705762 15.58250419 21.3125 15.5 C20.09626953 15.50257812 18.88003906 15.50515625 17.62695312 15.5078125 C9.98593283 15.4257833 3.24732838 14.43220155 -4 12 C-4 11.34 -4 10.68 -4 10 C2.61379064 10.89031797 2.61379064 10.89031797 4.84741211 11.5246582 C9.93782393 12.6487403 15.37365828 12.1848045 20.5625 12.1875 C21.80708984 12.19974609 23.05167969 12.21199219 24.33398438 12.22460938 C25.52443359 12.22654297 26.71488281 12.22847656 27.94140625 12.23046875 C29.03138916 12.23457764 30.12137207 12.23868652 31.24438477 12.24291992 C34.21498674 12.20297506 34.21498674 12.20297506 37 10 C37.33 9.01 37.66 8.02 38 7 C37.33097656 7.02320312 36.66195312 7.04640625 35.97265625 7.0703125 C23.82810854 7.29853219 11.36542284 6.54616914 0 2 C0 1.34 0 0.68 0 0 Z " fill="#D47C54" transform="translate(143,90)"/>
<path d="M0 0 C2.38564077 0.57584432 4.66682784 1.22227595 7 2 C7 2.66 7 3.32 7 4 C7.804375 4.2475 8.60875 4.495 9.4375 4.75 C13 6 13 6 14.734375 6.91796875 C22.85909729 11.15907379 32.03446932 11.79608337 41 13 C41 13.33 41 13.66 41 14 C35.42627695 14.96098673 32.3654765 14.97099137 27 13 C24.00968075 12.54677204 21.01320919 12.25444878 18 12 C20.55277419 14.79233071 22.22360282 15.48967606 26 16 C26 16.66 26 17.32 26 18 C27.32 18 28.64 18 30 18 C30.33 18.99 30.66 19.98 31 21 C18.87421163 18.92129342 7.66165529 11.49967865 0 2 C0 1.34 0 0.68 0 0 Z " fill="#D77B4D" transform="translate(39,66)"/>
<path d="M0 0 C0.90105469 0.11085937 1.80210938 0.22171875 2.73046875 0.3359375 C3.76107422 0.47902344 3.76107422 0.47902344 4.8125 0.625 C4.8125 1.285 4.8125 1.945 4.8125 2.625 C6.7925 2.625 8.7725 2.625 10.8125 2.625 C10.4825 3.615 10.1525 4.605 9.8125 5.625 C9.1525 5.625 8.4925 5.625 7.8125 5.625 C8.1425 7.275 8.4725 8.925 8.8125 10.625 C5.8425 9.635 2.8725 8.645 -0.1875 7.625 C-0.1875 6.965 -0.1875 6.305 -0.1875 5.625 C-2.4975 5.625 -4.8075 5.625 -7.1875 5.625 C-7.5175 4.305 -7.8475 2.985 -8.1875 1.625 C-4.73535147 -0.67643236 -3.95270676 -0.51333854 0 0 Z " fill="#DE662E" transform="translate(53.1875,53.375)"/>
<path d="M0 0 C2 1.3125 2 1.3125 4 3 C4 3.99 4 4.98 4 6 C-12.46765061 8.47513779 -30.88121555 8.57538413 -47 4 C-47.66 3.34 -48.32 2.68 -49 2 C-48.44465576 2.05534912 -47.88931152 2.11069824 -47.31713867 2.16772461 C-31.22285504 3.74161355 -15.16241802 4.54072371 1 5 C0.505 2.525 0.505 2.525 0 0 Z " fill="#DE9068" transform="translate(119,85)"/>
<path d="M0 0 C0.66 0.99 1.32 1.98 2 3 C0.69167808 8.91508925 -2.49827848 14.44497063 -5.125 19.875 C-5.59292969 20.84953125 -6.06085937 21.8240625 -6.54296875 22.828125 C-7.69214845 25.22029499 -8.84457243 27.61084316 -10 30 C-10.99 30 -11.98 30 -13 30 C-12.39662596 26.20334554 -11.28185954 23.21988309 -9.53125 19.8046875 C-9.04269531 18.84175781 -8.55414062 17.87882812 -8.05078125 16.88671875 C-7.28314453 15.39591797 -7.28314453 15.39591797 -6.5 13.875 C-5.48787935 11.89409888 -4.4773871 9.91236465 -3.46875 7.9296875 C-3.01951172 7.05554199 -2.57027344 6.18139648 -2.10742188 5.28076172 C-0.90342211 2.92676887 -0.90342211 2.92676887 0 0 Z " fill="#131313" transform="translate(653,105)"/>
<path d="M0 0 C0.99 0 1.98 0 3 0 C3.11613204 3.10385211 3.18722029 6.20714662 3.25 9.3125 C3.28351563 10.19357422 3.31703125 11.07464844 3.3515625 11.98242188 C3.36445313 12.82998047 3.37734375 13.67753906 3.390625 14.55078125 C3.41157227 15.33106689 3.43251953 16.11135254 3.45410156 16.9152832 C3 19 3 19 1.30566406 20.7487793 C-2.99841077 23.08448276 -7.70773478 22.51181816 -12.5 22.5 C-13.54542969 22.52835938 -14.59085938 22.55671875 -15.66796875 22.5859375 C-23.34953151 22.6056086 -23.34953151 22.6056086 -26.71875 19.46875 C-27.1415625 18.6540625 -27.564375 17.839375 -28 17 C-27.34 16.34 -26.68 15.68 -26 15 C-25.67 15.99 -25.34 16.98 -25 18 C-21.98473848 19.18262998 -19.00443939 19.11630488 -15.796875 19.09765625 C-14.8171875 19.09443359 -13.8375 19.09121094 -12.828125 19.08789062 C-11.81234375 19.07951172 -10.7965625 19.07113281 -9.75 19.0625 C-8.71875 19.05798828 -7.6875 19.05347656 -6.625 19.04882812 C-4.08330846 19.03706103 -1.54164682 19.0191261 1 19 C1.33 13.06 1.66 7.12 2 1 C1.34 0.67 0.68 0.34 0 0 Z " fill="#D9875E" transform="translate(229,178)"/>
<path d="M0 0 C1.79050781 0.30744141 1.79050781 0.30744141 3.6171875 0.62109375 C21.02961816 3.39413381 38.40785844 3.71955455 56 4 C56 4.33 56 4.66 56 5 C40.16 5 24.32 5 8 5 C8 4.34 8 3.68 8 3 C5.36 2.67 2.72 2.34 0 2 C0 1.34 0 0.68 0 0 Z " fill="#E29C79" transform="translate(50,51)"/>
<path d="M0 0 C1.4540625 0.0309375 1.4540625 0.0309375 2.9375 0.0625 C2.9375 0.3925 2.9375 0.7225 2.9375 1.0625 C1.2875 1.0625 -0.3625 1.0625 -2.0625 1.0625 C-2.3925 2.3825 -2.7225 3.7025 -3.0625 5.0625 C1.2275 5.0625 5.5175 5.0625 9.9375 5.0625 C9.9375 5.3925 9.9375 5.7225 9.9375 6.0625 C6.87546326 6.40018172 3.81280542 6.73186893 0.75 7.0625 C-0.54647461 7.20558594 -0.54647461 7.20558594 -1.86914062 7.3515625 C-5.95042925 7.78940189 -9.95038502 8.19871913 -14.0625 8.0625 C-14.0625 7.4025 -14.0625 6.7425 -14.0625 6.0625 C-15.0525 5.7325 -16.0425 5.4025 -17.0625 5.0625 C-12.68325075 2.60584798 -9.03082466 1.64700878 -4.0625 1.0625 C-3.0625 0.0625 -3.0625 0.0625 0 0 Z " fill="#FBDFCE" transform="translate(206.0625,110.9375)"/>
<path d="M0 0 C2.31 0.66 4.62 1.32 7 2 C7 2.66 7 3.32 7 4 C7.598125 4.103125 8.19625 4.20625 8.8125 4.3125 C11.33947013 5.10669061 12.15277041 6.15277041 14 8 C16.3430809 9.12085312 16.3430809 9.12085312 19 10 C19.9075 10.350625 20.815 10.70125 21.75 11.0625 C25.24262567 12.06998817 28.5330618 12.45748748 32.14453125 12.75390625 C34 13 34 13 35 14 C37.32817964 14.36760731 39.6618385 14.70241581 42 15 C42 15.33 42 15.66 42 16 C34.07253558 16.41004126 26.62982708 15.2089008 19 13 C18.34 12.34 17.68 11.68 17 11 C15.80375 10.5875 14.6075 10.175 13.375 9.75 C8.3880315 7.97219587 2.44669151 4.89338302 0 0 Z " fill="#FCE9D7" transform="translate(8,7)"/>
<path d="M0 0 C0.495 1.98 0.495 1.98 1 4 C-0.05316406 4.17015625 -1.10632813 4.3403125 -2.19140625 4.515625 C-10.87580852 5.96150553 -19.28261917 7.74361557 -27.73046875 10.23046875 C-30.9487521 10.98793807 -33.70834944 11.1448526 -37 11 C-36.67 10.34 -36.34 9.68 -36 9 C-34.88625 8.855625 -33.7725 8.71125 -32.625 8.5625 C-29.07303598 8.3901733 -29.07303598 8.3901733 -27.55078125 6.46875 C-26 5 -26 5 -23.87890625 4.77734375 C-23.11449219 4.83019531 -22.35007813 4.88304688 -21.5625 4.9375 C-18.21080034 5.17733675 -18.21080034 5.17733675 -15.13671875 4.01171875 C-12.1254504 2.58590796 -9.55885749 2.80882285 -6.25 2.875 C-5.07953125 2.89304687 -3.9090625 2.91109375 -2.703125 2.9296875 C-1.36507812 2.96449219 -1.36507812 2.96449219 0 3 C0 2.01 0 1.02 0 0 Z " fill="#D68C68" transform="translate(240,100)"/>
<path d="M0 0 C0.55429688 0.42152344 1.10859375 0.84304687 1.6796875 1.27734375 C2.40414062 1.82519531 3.12859375 2.37304688 3.875 2.9375 C4.59429687 3.48277344 5.31359375 4.02804688 6.0546875 4.58984375 C7.94357079 6.03964624 7.94357079 6.03964624 10 7 C10 7.66 10 8.32 10 9 C10.721875 9.20625 11.44375 9.4125 12.1875 9.625 C15.9255306 11.45248163 17.49246917 13.70438806 20 17 C18.68 17.33 17.36 17.66 16 18 C16 17.34 16 16.68 16 16 C15.360625 15.731875 14.72125 15.46375 14.0625 15.1875 C12 14 12 14 11 11 C9.68 11 8.36 11 7 11 C5.375 9.5625 5.375 9.5625 4 8 C3.34 7.67 2.68 7.34 2 7 C1.26924352 4.6859378 0.59861742 2.35171131 0 0 Z " fill="#D56E3F" transform="translate(218,80)"/>
<path d="M0 0 C2.91721268 1.34888816 5.25949026 2.91524725 7.75 4.9375 C11.65574535 7.94022528 15.32436681 9.4971179 20 11 C16.79937313 12.60031344 14.27728194 11.03173691 11 10 C12.32 12.31 13.64 14.62 15 17 C11.24303998 15.46462136 9.06466965 13.18751615 6.375 10.1875 C5.59898438 9.33542969 4.82296875 8.48335937 4.0234375 7.60546875 C2.08165352 5.10514074 0.99671254 2.98477894 0 0 Z " fill="#DC946F" transform="translate(6,7)"/>
<path d="M0 0 C0.25229961 5.42444152 0.25229961 5.42444152 -1 8.28125 C-2.22134143 11.601772 -2.19625891 14.2851842 -2.125 17.8125 C-2.09792969 19.55466797 -2.09792969 19.55466797 -2.0703125 21.33203125 C-2.04710937 22.21246094 -2.02390625 23.09289062 -2 24 C-2.66 24 -3.32 24 -4 24 C-5.04976964 20.85069107 -5.10131595 18.61185544 -5.0625 15.3125 C-5.05347656 14.31863281 -5.04445312 13.32476562 -5.03515625 12.30078125 C-5.02355469 11.54152344 -5.01195312 10.78226563 -5 10 C-4.34 10 -3.68 10 -3 10 C-2.67 7.36 -2.34 4.72 -2 2 C-6.62 2 -11.24 2 -16 2 C-16 1.67 -16 1.34 -16 1 C-10.62915894 0.31798844 -5.41499441 -0.11521265 0 0 Z " fill="#D48055" transform="translate(242,114)"/>
<path d="M0 0 C2.77067234 2.39285339 3.88552688 4.52302313 5 8 C5.22705078 11.41333008 5.22705078 11.41333008 5.1953125 15.26953125 C5.1924826 15.95053391 5.18965271 16.63153656 5.18673706 17.33317566 C5.17560525 19.49313455 5.15051457 21.65266794 5.125 23.8125 C5.11496111 25.28319711 5.10583685 26.75390076 5.09765625 28.22460938 C5.07568913 31.81654286 5.0412082 35.40822985 5 39 C4.67 39 4.34 39 4 39 C3.9498877 38.04633545 3.89977539 37.0926709 3.84814453 36.11010742 C3.65973694 32.57050223 3.45936138 29.03165844 3.25537109 25.49291992 C3.16877101 23.96152564 3.08541354 22.42994439 3.00537109 20.89819336 C2.88972281 18.69587878 2.76241137 16.49450097 2.6328125 14.29296875 C2.59938751 13.60849167 2.56596252 12.92401459 2.53152466 12.21879578 C2.31014837 8.66461933 2.02656537 7.03984805 0 4 C0 2.68 0 1.36 0 0 Z " fill="#D49572" transform="translate(138,32)"/>
<path d="M0 0 C0.33 0 0.66 0 1 0 C1 1.65 1 3.3 1 5 C2.32 5.66 3.64 6.32 5 7 C4.071875 7.309375 4.071875 7.309375 3.125 7.625 C0.07067963 9.60132494 -0.0727151 11.51468778 -1 15 C-1.28348021 17.64759822 -1.50164253 20.22281443 -1.625 22.875 C-1.68300781 23.90753906 -1.68300781 23.90753906 -1.7421875 24.9609375 C-1.83548166 26.64023246 -1.91878238 28.32007767 -2 30 C-2.33 30 -2.66 30 -3 30 C-3 23.73 -3 17.46 -3 11 C-2.34 11 -1.68 11 -1 11 C-1 8.36 -1 5.72 -1 3 C-5.455 3.495 -5.455 3.495 -10 4 C-6.3558226 1.5705484 -4.28758728 1.83820425 0 2 C0 1.34 0 0.68 0 0 Z " fill="#E29D80" transform="translate(151,155)"/>
<path d="M0 0 C2.31 0 4.62 0 7 0 C7.33 0.66 7.66 1.32 8 2 C10.33799449 2.76342677 12.61779272 3.41124155 15 4 C16.10988281 4.28230469 16.10988281 4.28230469 17.2421875 4.5703125 C19.15948472 5.05475415 21.07952712 5.52830491 23 6 C23 6.66 23 7.32 23 8 C24.32 8.33 25.64 8.66 27 9 C18.2813971 9.87186029 9.09894388 7.04274072 2.07421875 1.828125 C1.38972656 1.22484375 0.70523438 0.6215625 0 0 Z " fill="#DB8B64" transform="translate(46,59)"/>
<path d="M0 0 C6.27 0.66 12.54 1.32 19 2 C19 2.99 19 3.98 19 5 C11.95559921 5.21133202 5.75887425 5.07965362 -1 3 C-0.67 2.01 -0.34 1.02 0 0 Z " fill="#111111" transform="translate(802,155)"/>
<path d="M0 0 C0.99 0.103125 1.98 0.20625 3 0.3125 C5.28240525 3.73610788 5.33763381 5.38990857 5.5625 9.4375 C5.63726562 10.58992188 5.71203125 11.74234375 5.7890625 12.9296875 C5.85867187 14.04601563 5.92828125 15.16234375 6 16.3125 C6.22756221 19.35509098 6.54673021 22.29070139 7 25.3125 C7.66 25.6425 8.32 25.9725 9 26.3125 C8.01 26.3125 7.02 26.3125 6 26.3125 C4.19889833 18.98348882 2.6377902 11.83842433 2 4.3125 C-0.31 3.6525 -2.62 2.9925 -5 2.3125 C-3 0.3125 -3 0.3125 0 0 Z " fill="#D1784F" transform="translate(113,38.6875)"/>
<path d="M0 0 C10.395 1.98 10.395 1.98 21 4 C21 4.33 21 4.66 21 5 C9.47835991 5.3690205 9.47835991 5.3690205 4 3 C4.33 3.66 4.66 4.32 5 5 C5.99 5.33 6.98 5.66 8 6 C7.67 7.32 7.34 8.64 7 10 C3.33813338 6.62722811 1.91094879 4.77737198 0 0 Z " fill="#D4713F" transform="translate(17,17)"/>
<path d="M0 0 C5.99779468 0.25631601 8.75380167 0.62110797 13 5 C15.34806635 5.67981317 17.6614409 6.12082031 20.07421875 6.5078125 C20.70972656 6.67023438 21.34523437 6.83265625 22 7 C22.33 7.66 22.66 8.32 23 9 C23.99 9.33 24.98 9.66 26 10 C26 10.99 26 11.98 26 13 C25.47921875 12.72929687 24.9584375 12.45859375 24.421875 12.1796875 C21.40979627 10.71251367 18.33744816 9.42604256 15.25 8.125 C10.06618684 5.92650179 4.99626772 3.59805921 0 1 C0 0.67 0 0.34 0 0 Z " fill="#DB9271" transform="translate(176,218)"/>
<path d="M0 0 C1.9375 0.8125 1.9375 0.8125 4 2 C4.33 2.99 4.66 3.98 5 5 C5.66 5 6.32 5 7 5 C7 5.66 7 6.32 7 7 C9.31 7.66 11.62 8.32 14 9 C14 8.34 14 7.68 14 7 C14.66 7 15.32 7 16 7 C15.773125 7.598125 15.54625 8.19625 15.3125 8.8125 C15.1578125 9.8953125 15.1578125 9.8953125 15 11 C16.35444301 12.77190909 16.35444301 12.77190909 18 14 C11.97973351 14 6.62498126 8.79789855 2.4375 4.75 C0 2 0 2 0 0 Z " fill="#D67346" transform="translate(157,202)"/>
<path d="M0 0 C1.46841427 2.93682854 0.76696084 4.86824322 0 8 C-0.515625 8.474375 -1.03125 8.94875 -1.5625 9.4375 C-3.39867555 11.09947165 -3.39867555 11.09947165 -3.1875 14.6875 C-3.125625 15.780625 -3.06375 16.87375 -3 18 C-2.01 18 -1.02 18 0 18 C0.33 19.98 0.66 21.96 1 24 C-6 17 -6 17 -6.4375 14.5 C-5.82326486 9.58611891 -3.59460165 3.59460165 0 0 Z " fill="#D8805F" transform="translate(177,143)"/>
<path d="M0 0 C0.66 0.33 1.32 0.66 2 1 C0.75 4.4375 0.75 4.4375 -1 8 C-3.0625 8.6875 -3.0625 8.6875 -5 9 C-5.28875 9.5775 -5.5775 10.155 -5.875 10.75 C-7.54100513 14.08201026 -10.07916393 15.71412829 -13 18 C-13.66 17.67 -14.32 17.34 -15 17 C-14.33613281 16.35933594 -13.67226562 15.71867188 -12.98828125 15.05859375 C-8.12599004 10.29567783 -3.72104919 5.70560876 0 0 Z " fill="#F8DBCB" transform="translate(180,123)"/>
<path d="M0 0 C-7.92118324 4.41861923 -18.21965068 3.12386073 -27 3 C-27 2.67 -27 2.34 -27 2 C-17.86970027 0.09572892 -9.28145408 -0.22823248 0 0 Z " fill="#CE794D" transform="translate(218,117)"/>
<path d="M0 0 C2.38564077 0.57584432 4.66682784 1.22227595 7 2 C7 2.66 7 3.32 7 4 C7.99 4.33 8.98 4.66 10 5 C10.33 6.98 10.66 8.96 11 11 C7.84164893 9.60249952 5.67727175 7.94801766 3.25 5.5 C2.63640625 4.8915625 2.0228125 4.283125 1.390625 3.65625 C0 2 0 2 0 0 Z " fill="#DC9064" transform="translate(39,66)"/>
<path d="M0 0 C5.35048061 0.37328935 7.50912907 1.9957657 11 6 C10.01 7.32 9.02 8.64 8 10 C6.99403703 9.0479279 5.99538437 8.08812654 5 7.125 C4.443125 6.59132813 3.88625 6.05765625 3.3125 5.5078125 C2 4 2 4 2 2 C1.34 2 0.68 2 0 2 C0 1.34 0 0.68 0 0 Z " fill="#DB8C5F" transform="translate(25,41)"/>
<path d="M0 0 C0.33 0.66 0.66 1.32 1 2 C3.16467461 2.62669199 5.35864524 3.15427374 7.5625 3.625 C9.35880859 4.01558594 9.35880859 4.01558594 11.19140625 4.4140625 C12.11824219 4.60742188 13.04507813 4.80078125 14 5 C14 5.33 14 5.66 14 6 C6.86585832 6.22648069 -0.35663422 6.31042708 -6.5625 2.375 C-7.036875 1.92125 -7.51125 1.4675 -8 1 C-7.05125 1.020625 -6.1025 1.04125 -5.125 1.0625 C-2.09333717 1.22551826 -2.09333717 1.22551826 0 0 Z " fill="#D37752" transform="translate(47,34)"/>
<path d="M0 0 C5.36513131 0.847126 10.6787385 1.91681831 16 3 C16 3.33 16 3.66 16 4 C10.06 4.495 10.06 4.495 4 5 C4 4.34 4 3.68 4 3 C2.68 2.67 1.36 2.34 0 2 C0 1.34 0 0.68 0 0 Z " fill="#E4672D" transform="translate(21,20)"/>
<path d="M0 0 C2 2 2 2 2.9375 5.3125 C3.80581352 8.95061193 3.80581352 8.95061193 5.625 11.625 C7.18970719 14.32767606 7.2631365 15.93007415 7 19 C5.68 19 4.36 19 3 19 C3 18.34 3 17.68 3 17 C3.66 17 4.32 17 5 17 C4.6390625 16.35933594 4.278125 15.71867188 3.90625 15.05859375 C1.05393786 9.74220085 -0.65733527 6.04748452 0 0 Z " fill="#D68C62" transform="translate(208,218)"/>
<path d="M0 0 C0.66 0 1.32 0 2 0 C1.29751811 4.5117147 -1.21096684 6.30347165 -4.50390625 9.21875 C-6.42876847 11.12279405 -6.42876847 11.12279405 -6 15 C-6.66 15 -7.32 15 -8 15 C-8.35858439 11.14521782 -8.2754818 9.42240542 -6.125 6.125 C-5.42375 5.42375 -4.7225 4.7225 -4 4 C-3.34 4 -2.68 4 -2 4 C-2 3.34 -2 2.68 -2 2 C-1.34 2 -0.68 2 0 2 C0 1.34 0 0.68 0 0 Z " fill="#FBE6D6" transform="translate(160,145)"/>
<path d="M0 0 C2.475 0.99 2.475 0.99 5 2 C5 3.32 5 4.64 5 6 C6.65 5.67 8.3 5.34 10 5 C10 7.64 10 10.28 10 13 C8.33333333 11.33333333 6.66666667 9.66666667 5 8 C4.2575 7.319375 3.515 6.63875 2.75 5.9375 C0.9148473 3.9057238 0.38223286 2.67563 0 0 Z " fill="#D57A50" transform="translate(182,171)"/>
<path d="M0 0 C2 2 2 2 2.125 5.625 C2.08375 6.73875 2.0425 7.8525 2 9 C-1.21451269 10.60725635 -4.43612536 10.05748185 -8 10 C-4.25 8 -4.25 8 -2 8 C-1.34 5.36 -0.68 2.72 0 0 Z " fill="#DE956C" transform="translate(244,150)"/>
<path d="M0 0 C0 3 0 3 -1 6 C-1.66 6 -2.32 6 -3 6 C-3.33 8.31 -3.66 10.62 -4 13 C-4.99 13.33 -5.98 13.66 -7 14 C-7 15.65 -7 17.3 -7 19 C-7.66 19 -8.32 19 -9 19 C-8.25043295 11.50432952 -4.91043599 5.61192685 0 0 Z " fill="#D88461" transform="translate(125,99)"/>
<path d="M0 0 C0.66 0.66 1.32 1.32 2 2 C1.63318342 4.93453261 1.13562754 5.86437246 -1 8 C-3.125 7.625 -3.125 7.625 -5 7 C-4.01 6.34 -3.02 5.68 -2 5 C-1.67 4.01 -1.34 3.02 -1 2 C-4.96 2 -8.92 2 -13 2 C-13 1.67 -13 1.34 -13 1 C-10.87631556 0.77865824 -8.75095976 0.57329993 -6.625 0.375 C-5.44164062 0.25898437 -4.25828125 0.14296875 -3.0390625 0.0234375 C-2.03617188 0.01570313 -1.03328125 0.00796875 0 0 Z " fill="#D78C6A" transform="translate(182,95)"/>
<path d="M0 0 C1.32 0 2.64 0 4 0 C4 0.66 4 1.32 4 2 C6.64 2.33 9.28 2.66 12 3 C12.66 4.65 13.32 6.3 14 8 C8.24857558 6.70886391 4.62256741 4.6791863 0 1 C0 0.67 0 0.34 0 0 Z " fill="#D58159" transform="translate(25,27)"/>
<path d="M0 0 C1.98 0.66 3.96 1.32 6 2 C6.33 3.65 6.66 5.3 7 7 C4.03 6.505 4.03 6.505 1 6 C0.67 4.02 0.34 2.04 0 0 Z " fill="#E1642C" transform="translate(203,224)"/>
<path d="M0 0 C0.721875 0.12375 1.44375 0.2475 2.1875 0.375 C0.81595496 3.32909701 -0.80113724 5.81508376 -2.8125 8.375 C-2.8125 7.055 -2.8125 5.735 -2.8125 4.375 C-4.4625 5.035 -6.1125 5.695 -7.8125 6.375 C-3.50480769 0.46730769 -3.50480769 0.46730769 0 0 Z " fill="#FDEEDD" transform="translate(189.8125,116.625)"/>
<path d="M0 0 C3 3.625 3 3.625 3 7 C1.53984709 6.71758359 0.08190207 6.42373386 -1.375 6.125 C-2.18710938 5.96257812 -2.99921875 5.80015625 -3.8359375 5.6328125 C-6 5 -6 5 -8 3 C-5.36 3 -2.72 3 0 3 C0 2.01 0 1.02 0 0 Z " fill="#D47B4D" transform="translate(210,228)"/>
<path d="M0 0 C2 1.3125 2 1.3125 4 3 C4 3.99 4 4.98 4 6 C-2.27 6 -8.54 6 -15 6 C-15 5.67 -15 5.34 -15 5 C-9.72 5 -4.44 5 1 5 C0.67 3.35 0.34 1.7 0 0 Z " fill="#DB8D66" transform="translate(119,85)"/>
<path d="M0 0 C2.66672603 2.43483681 3.9008646 4.25969405 4.11352539 7.99291992 C4.10828857 8.73131104 4.10305176 9.46970215 4.09765625 10.23046875 C4.09443359 11.03291016 4.09121094 11.83535156 4.08789062 12.66210938 C4.07532227 13.91217773 4.07532227 13.91217773 4.0625 15.1875 C4.05798828 16.03248047 4.05347656 16.87746094 4.04882812 17.74804688 C4.03705403 19.83206155 4.0191189 21.91603977 4 24 C3.67 24 3.34 24 3 24 C2.95101562 22.80761719 2.90203125 21.61523438 2.8515625 20.38671875 C2.77652396 18.82028932 2.7009766 17.25388421 2.625 15.6875 C2.57859375 14.50897461 2.57859375 14.50897461 2.53125 13.30664062 C2.47324219 12.1706543 2.47324219 12.1706543 2.4140625 11.01171875 C2.3826416 10.31522217 2.3512207 9.61872559 2.31884766 8.90112305 C2.07881747 6.67467261 2.07881747 6.67467261 0 4 C0 2.68 0 1.36 0 0 Z " fill="#D5875C" transform="translate(138,32)"/>
<path d="M0 0 C2.47960136 0.14024219 4.95852402 0.2869185 7.4375 0.4375 C8.14455078 0.47681641 8.85160156 0.51613281 9.58007812 0.55664062 C14.88671875 0.88671875 14.88671875 0.88671875 16 2 C18.32817964 2.36760731 20.6618385 2.70241581 23 3 C23 3.33 23 3.66 23 4 C14.98298054 4.41467342 7.78069851 2.85939879 0 1 C0 0.67 0 0.34 0 0 Z " fill="#EFC2A6" transform="translate(27,19)"/>
<path d="M0 0 C4.20626034 1.50223584 5.73900021 4.28550034 8 8 C6.68 8 5.36 8 4 8 C4 7.34 4 6.68 4 6 C2.68 5.34 1.36 4.68 0 4 C0 2.68 0 1.36 0 0 Z " fill="#D57D53" transform="translate(230,90)"/>
<path d="M0 0 C0.33 0 0.66 0 1 0 C1 4.95 1 9.9 1 15 C1.66 15 2.32 15 3 15 C3 17.31 3 19.62 3 22 C2.690625 21.360625 2.38125 20.72125 2.0625 20.0625 C1.1654837 18.06389179 1.1654837 18.06389179 0 17 C-0.07325168 14.13732433 -0.09238205 11.299281 -0.0625 8.4375 C-0.05798828 7.63119141 -0.05347656 6.82488281 -0.04882812 5.99414062 C-0.03700518 3.99606244 -0.01906914 1.99802217 0 0 Z " fill="#D77A53" transform="translate(149,170)"/>
<path d="M0 0 C1.9375 0.8125 1.9375 0.8125 4 2 C4.33 2.99 4.66 3.98 5 5 C5.99 5.33 6.98 5.66 8 6 C7.67 7.32 7.34 8.64 7 10 C3.60582235 6.87378374 1.3937282 4.43458973 0 0 Z " fill="#D87749" transform="translate(17,17)"/>
<path d="M0 0 C4.47959418 1.14185734 8.14522751 2.43015167 12 5 C7.74938644 6.41687119 5.28148375 5.19320039 1 4 C0.67 2.68 0.34 1.36 0 0 Z " fill="#FCEADC" transform="translate(187,224)"/>
<path d="M0 0 C1.9375 0.8125 1.9375 0.8125 4 2 C4.33 2.99 4.66 3.98 5 5 C5.66 5 6.32 5 7 5 C7 5.66 7 6.32 7 7 C7.99 7.33 8.98 7.66 10 8 C10 8.66 10 9.32 10 10 C5.86360664 8.40907948 2.76786752 5.39525082 0 2 C0 1.34 0 0.68 0 0 Z " fill="#CC754C" transform="translate(157,202)"/>
<path d="M0 0 C0.90492188 0.02320312 1.80984375 0.04640625 2.7421875 0.0703125 C4.10730469 0.09738281 4.10730469 0.09738281 5.5 0.125 C6.19867188 0.14820312 6.89734375 0.17140625 7.6171875 0.1953125 C6.3671875 1.6953125 6.3671875 1.6953125 4.6171875 3.1953125 C3.2971875 3.1953125 1.9771875 3.1953125 0.6171875 3.1953125 C-0.3728125 3.5253125 -1.3628125 3.8553125 -2.3828125 4.1953125 C-3.0428125 3.5353125 -3.7028125 2.8753125 -4.3828125 2.1953125 C-2.3828125 0.1953125 -2.3828125 0.1953125 0 0 Z " fill="#D86430" transform="translate(177.3828125,70.8046875)"/>
<path d="M0 0 C2.97 0.495 2.97 0.495 6 1 C6.33 1.99 6.66 2.98 7 4 C8.32 4 9.64 4 11 4 C11.33 5.32 11.66 6.64 12 8 C8.0256929 6.67523097 5.84720708 5.03702088 3 2 C2.01 1.34 1.02 0.68 0 0 Z " fill="#DA825A" transform="translate(34,51)"/>
<path d="M0 0 C2.3431213 0.25561323 4.67843403 0.59270772 7 1 C7.33 1.66 7.66 2.32 8 3 C8.99 3.33 9.98 3.66 11 4 C11 4.99 11 5.98 11 7 C7.22272911 5.18690997 3.62730178 3.0926741 0 1 C0 0.67 0 0.34 0 0 Z " fill="#D5815A" transform="translate(191,224)"/>
<path d="M0 0 C0.66666667 1.33333333 1.33333333 2.66666667 2 4 C2.37125 4.639375 2.7425 5.27875 3.125 5.9375 C4.17440531 8.41109822 4.14780359 10.33953538 4 13 C3.01 13.495 3.01 13.495 2 14 C-0.29612756 4.58997722 -0.29612756 4.58997722 0 0 Z " fill="#D88053" transform="translate(240,139)"/>
<path d="M0 0 C1.33332095 2.6666419 0.67102033 4.16680303 0 7 C-0.99 7.33 -1.98 7.66 -3 8 C-3.33 8.99 -3.66 9.98 -4 11 C-4.66 11 -5.32 11 -6 11 C-4.54955729 6.89041233 -2.48889248 3.56741255 0 0 Z " fill="#DA7B55" transform="translate(186,128)"/>
<path d="M0 0 C1.65 0 3.3 0 5 0 C5.33 1.32 5.66 2.64 6 4 C4.02 4 2.04 4 0 4 C0 2.68 0 1.36 0 0 Z " fill="#DC642C" transform="translate(233,98)"/>
<path d="M0 0 C2.97 0 5.94 0 9 0 C9 0.99 9 1.98 9 3 C10.32 3.33 11.64 3.66 13 4 C11 5 11 5 8.3984375 4.22265625 C6.90183594 3.64837891 6.90183594 3.64837891 5.375 3.0625 C4.37210938 2.68222656 3.36921875 2.30195312 2.3359375 1.91015625 C1.56507813 1.60980469 0.79421875 1.30945313 0 1 C0 0.67 0 0.34 0 0 Z " fill="#F2C9B2" transform="translate(203,73)"/>
<path d="M0 0 C1.98 0.66 3.96 1.32 6 2 C6 2.99 6 3.98 6 5 C3.69 4.67 1.38 4.34 -1 4 C-0.67 2.68 -0.34 1.36 0 0 Z " fill="#D66B34" transform="translate(35,47)"/>
<path d="M0 0 C1.31223496 3.93670488 0.24296256 6.12488144 -1 10 C-1.66 10 -2.32 10 -3 10 C-3.36923077 3.47692308 -3.36923077 3.47692308 -1.5 1.0625 C-1.005 0.711875 -0.51 0.36125 0 0 Z " fill="#FDE9DA" transform="translate(172,150)"/>
<path d="M0 0 C2.38564077 0.57584432 4.66682784 1.22227595 7 2 C7 2.66 7 3.32 7 4 C6.34 4 5.68 4 5 4 C4.67 4.66 4.34 5.32 4 6 C2.62437146 4.71034824 1.29233607 3.37310707 0 2 C0 1.34 0 0.68 0 0 Z " fill="#D9A280" transform="translate(39,66)"/>
<path d="M0 0 C2.64 1.98 5.28 3.96 8 6 C7.34 6.66 6.68 7.32 6 8 C6 7.34 6 6.68 6 6 C4.35 5.67 2.7 5.34 1 5 C0.67 3.35 0.34 1.7 0 0 Z " fill="#D47C52" transform="translate(158,165)"/>
<path d="M0 0 C1.90401138 1.90401138 2.93520439 3.33425686 3.19921875 6.046875 C3.1886578 8.03233273 3.09915043 10.0169914 3 12 C0.97649676 8.96474514 0.67875982 7.80573798 0.375 4.3125 C0.30023438 3.50425781 0.22546875 2.69601563 0.1484375 1.86328125 C0.09945312 1.24839844 0.05046875 0.63351563 0 0 Z " fill="#F5D7BF" transform="translate(240,134)"/>
<path d="M0 0 C0.66 0 1.32 0 2 0 C5 6.625 5 6.625 5 10 C4.34 10 3.68 10 3 10 C2.01 6.7 1.02 3.4 0 0 Z " fill="#D67E5A" transform="translate(121,66)"/>
<path d="M0 0 C4.81449408 0.48144941 7.60171741 0.8008587 12 3 C8.7 3 5.4 3 2 3 C2 2.34 2 1.68 2 1 C1.34 0.67 0.68 0.34 0 0 Z " fill="#FAD9C9" transform="translate(44,38)"/>
<path d="M0 0 C2.09749995 2.35968744 2.96905704 3.54616994 3.1875 6.75 C3.125625 7.4925 3.06375 8.235 3 9 C1.68 9 0.36 9 -1 9 C-1 8.34 -1 7.68 -1 7 C-0.34 7 0.32 7 1 7 C0.67 4.69 0.34 2.38 0 0 Z " fill="#E1AE8B" transform="translate(212,228)"/>
<path d="M0 0 C1.17571451 3.67410785 1.07366746 7.16929183 1 11 C0.01 11 -0.98 11 -2 11 C-1.125 3.375 -1.125 3.375 0 0 Z " fill="#D37649" transform="translate(115,118)"/>
<path d="M0 0 C2.31 0.33 4.62 0.66 7 1 C7 1.66 7 2.32 7 3 C7.99 3 8.98 3 10 3 C10 3.66 10 4.32 10 5 C2.42857143 3.14285714 2.42857143 3.14285714 0 0 Z " fill="#F7D5BE" transform="translate(46,69)"/>
<path d="M0 0 C3.72433382 1.2125738 7.37802806 2.50859979 11 4 C11 4.33 11 4.66 11 5 C8.69 5 6.38 5 4 5 C4 4.01 4 3.02 4 2 C2.68 1.67 1.36 1.34 0 1 C0 0.67 0 0.34 0 0 Z " fill="#FCECD8" transform="translate(54,81)"/>
<path d="M0 0 C2.97 0.33 5.94 0.66 9 1 C9.33 1.99 9.66 2.98 10 4 C6.44219804 3.39009109 3.3171411 2.4216319 0 1 C0 0.67 0 0.34 0 0 Z " fill="#DC966E" transform="translate(60,83)"/>
<path d="M0 0 C2.64 1.98 5.28 3.96 8 6 C5 7 5 7 2 6 C0.8125 2.9375 0.8125 2.9375 0 0 Z " fill="#F7D7C2" transform="translate(159,206)"/>
<path d="M0 0 C5.75 1.875 5.75 1.875 8 3 C8 3.99 8 4.98 8 6 C4.63408134 4.55746343 2.48952921 2.66735273 0 0 Z " fill="#FBDDCA" transform="translate(171,176)"/>
<path d="M0 0 C0.99 0.33 1.98 0.66 3 1 C2.67 2.32 2.34 3.64 2 5 C1.01 5 0.02 5 -1 5 C-0.67 3.35 -0.34 1.7 0 0 Z " fill="#E0692C" transform="translate(240,152)"/>
<path d="M0 0 C0.33 0 0.66 0 1 0 C2.11658501 4.68965706 1.80619523 7.53763531 0 12 C-0.33 12 -0.66 12 -1 12 C-1.02712066 10.56260487 -1.04645067 9.12506137 -1.0625 7.6875 C-1.07410156 6.88699219 -1.08570313 6.08648437 -1.09765625 5.26171875 C-1 3 -1 3 0 0 Z " fill="#FBDAC1" transform="translate(240,122)"/>
<path d="M0 0 C1.65 0 3.3 0 5 0 C2.47043472 3.0916909 -0.22454612 3.90931332 -4 5 C-4 4.34 -4 3.68 -4 3 C-2.68 2.67 -1.36 2.34 0 2 C0 1.34 0 0.68 0 0 Z " fill="#D6855B" transform="translate(190,113)"/>
<path d="M0 0 C0.33 0.66 0.66 1.32 1 2 C1.66 2 2.32 2 3 2 C3 3.65 3 5.3 3 7 C3.66 7.33 4.32 7.66 5 8 C3.68 7.67 2.36 7.34 1 7 C0.67 4.69 0.34 2.38 0 0 Z " fill="#FAD8C4" transform="translate(144,72)"/>
</svg>
