<?xml version="1.0" standalone="no"?>
<!DOCTYPE svg PUBLIC "-//W3C//DTD SVG 20010904//EN"
 "http://www.w3.org/TR/2001/REC-SVG-20010904/DTD/svg10.dtd">
<svg version="1.0" xmlns="http://www.w3.org/2000/svg"
 width="800.000000pt" height="800.000000pt" viewBox="0 0 800.000000 800.000000"
 preserveAspectRatio="xMidYMid meet">

<g transform="translate(0.000000,800.000000) scale(0.100000,-0.100000)"
fill="#000000" stroke="none">
<path d="M1661 4714 c6 -8 8 -14 4 -14 -9 0 35 -40 78 -71 15 -11 27 -18 27
-15 0 3 12 -6 26 -19 15 -14 32 -25 38 -24 6 0 5 3 -3 6 -11 5 -11 7 0 14 10
6 7 9 -11 9 l-25 1 25 11 c15 6 20 12 12 15 -6 3 -9 9 -6 14 3 6 11 6 20 -2 7
-6 11 -15 9 -20 -3 -4 4 -13 15 -19 16 -9 24 -8 36 5 18 17 44 20 44 4 0 -6
-7 -8 -16 -5 -8 3 -12 2 -9 -4 3 -6 13 -10 21 -10 17 0 19 -21 3 -37 -8 -8
-20 -6 -45 9 -41 24 -68 19 -30 -6 54 -35 212 -68 336 -70 194 -2 323 7 337
24 16 21 7 30 -35 32 l-37 1 33 4 c34 4 66 -12 56 -28 -3 -5 2 -6 11 -3 18 7
48 -14 42 -31 -8 -18 21 -75 37 -75 9 0 13 6 10 14 -3 9 2 13 18 11 13 -1 25
-3 27 -4 2 0 -8 -12 -21 -26 -17 -17 -31 -23 -43 -18 -14 5 -16 3 -10 -7 5 -9
4 -11 -4 -6 -9 6 -9 11 -1 21 13 16 -6 33 -21 18 -11 -11 10 -103 24 -103 4 0
6 -4 3 -9 -3 -5 1 -12 10 -15 11 -4 15 -14 12 -31 -3 -14 -1 -25 3 -25 5 0 6
-6 3 -14 -3 -8 5 -21 18 -30 12 -9 18 -16 13 -16 -6 0 -1 -7 9 -15 23 -18 45
-20 29 -4 -12 12 -7 39 8 39 5 0 9 -9 9 -21 0 -11 4 -18 9 -15 5 3 12 -1 15
-10 3 -9 2 -12 -4 -9 -6 4 -19 3 -31 0 -20 -7 -20 -8 -3 -26 33 -37 124 -90
177 -104 94 -24 282 -36 309 -19 18 11 26 -8 13 -32 -14 -28 -71 -68 -79 -56
-2 4 -50 5 -105 2 -85 -4 -112 -2 -165 16 -35 11 -73 20 -84 19 -12 -1 -19 1
-17 5 2 4 -12 14 -31 23 -41 20 -49 15 -77 -45 -10 -21 -25 -42 -35 -47 -9 -6
-13 -11 -8 -11 5 0 1 -9 -9 -20 -10 -11 -15 -20 -10 -20 4 0 2 -7 -5 -15 -7
-8 -9 -15 -5 -15 4 0 2 -6 -4 -14 -6 -7 -8 -21 -5 -31 6 -15 9 -15 20 6 9 18
10 27 1 38 -10 12 -9 14 6 8 11 -4 16 -3 12 3 -3 6 -1 10 5 10 6 0 13 -7 16
-15 4 -8 10 -15 15 -15 14 0 10 26 -6 40 -13 11 -13 15 6 31 17 14 25 16 45 7
16 -8 21 -14 13 -19 -7 -4 6 -6 27 -6 21 1 42 6 46 12 5 6 12 5 20 -3 6 -6 20
-12 30 -12 28 0 23 -39 -7 -50 -28 -11 -30 -18 -11 -43 13 -16 11 -57 -2 -57
-12 0 -31 37 -32 63 0 24 -3 27 -32 26 -24 -1 -27 -3 -10 -6 13 -3 22 -12 22
-23 0 -10 5 -22 10 -25 6 -3 10 -15 10 -25 0 -15 10 -20 46 -26 33 -5 48 -3
54 6 5 8 19 11 39 7 24 -5 29 -3 24 8 -4 11 3 15 26 15 17 0 31 5 31 10 0 19
16 10 17 -10 1 -16 -4 -20 -28 -20 -16 0 -29 -5 -29 -11 0 -7 -10 -9 -27 -5
-16 5 -29 3 -34 -5 -7 -12 -28 -17 -86 -18 -22 -1 -33 -6 -33 -16 0 -8 3 -15
8 -15 4 -1 26 -5 49 -9 24 -5 40 -4 37 0 -3 5 1 9 10 9 8 0 16 6 19 13 2 6 8
9 12 4 11 -9 -29 -47 -50 -47 -9 0 -31 -15 -49 -33 -26 -26 -31 -38 -24 -50 5
-10 16 -17 23 -17 20 0 19 -16 0 -24 -9 -3 -15 0 -15 10 0 10 -6 14 -14 11
-10 -4 -12 0 -9 14 6 21 -35 44 -51 28 -6 -5 -14 -9 -20 -9 -5 0 -1 6 9 14 10
7 26 11 35 9 36 -10 35 81 -1 120 -14 15 -21 17 -38 8 -12 -7 -21 -8 -21 -4 0
4 -4 2 -9 -6 -6 -9 -4 -23 6 -38 13 -20 14 -28 3 -48 -7 -13 -10 -31 -6 -40 3
-9 0 -18 -9 -21 -26 -10 -17 -34 12 -34 26 0 26 -1 7 -15 -10 -8 -28 -15 -39
-15 l-20 -1 20 -9 c16 -7 12 -9 -19 -9 -32 -1 -36 1 -27 13 9 10 8 15 -4 20
-28 10 -8 101 21 96 5 -1 10 3 12 8 7 21 -53 9 -71 -14 -10 -13 -23 -22 -28
-18 -8 4 -7 -178 1 -196 1 -3 1 -13 0 -23 -1 -15 3 -17 22 -12 57 18 69 25 62
37 -4 7 -4 10 1 6 4 -4 15 -2 23 5 13 10 14 9 8 -2 -7 -10 -3 -12 15 -6 25 7
94 37 142 61 15 7 25 10 22 5 -3 -5 7 -6 22 -2 21 6 27 14 26 29 -2 12 2 22 8
22 5 0 8 -4 4 -9 -3 -5 -2 -11 2 -13 5 -2 27 15 50 39 23 24 40 43 38 43 -2 0
24 26 57 58 33 31 95 98 136 147 42 50 80 93 84 96 4 3 21 4 38 3 27 -2 29 0
18 20 -10 19 -10 20 5 7 14 -11 17 -11 17 0 0 11 2 11 10 -1 5 -8 10 -10 10
-4 0 10 80 26 192 38 15 2 35 9 44 17 9 7 28 14 43 15 14 1 26 2 26 3 0 2 17
4 38 6 21 2 41 5 44 8 9 10 -122 133 -197 186 -50 35 -101 60 -157 77 -74 23
-94 26 -190 21 -60 -2 -121 -8 -137 -11 -43 -10 -99 -35 -107 -48 -4 -6 -15
-12 -26 -13 -10 -1 -29 -7 -43 -12 -27 -11 -50 -1 -50 22 0 6 -11 34 -25 61
-28 55 -29 57 -16 50 17 -11 19 78 2 98 -15 18 -15 19 0 14 13 -5 15 2 12 45
-3 29 -5 67 -6 85 -1 23 -5 31 -15 27 -7 -2 -10 -1 -7 4 3 5 1 12 -5 16 -6 4
-8 10 -5 15 6 10 -31 57 -58 72 -21 12 -267 28 -267 18 0 -3 -128 -5 -284 -5
-156 0 -282 3 -280 7 5 7 -23 15 -126 38 -30 7 -59 16 -65 20 -5 4 -22 10 -38
12 -22 4 -25 3 -16 -8z m420 -116 c8 -12 217 -19 224 -7 3 4 44 8 92 8 54 0
89 4 93 11 13 21 45 7 45 -20 0 -20 -5 -25 -27 -25 -15 -1 -30 -4 -34 -8 -4
-4 -17 -7 -28 -7 -15 0 -17 3 -8 9 11 6 10 10 -4 15 -10 4 -15 4 -11 0 4 -4 2
-13 -4 -21 -12 -14 -75 -18 -83 -5 -7 12 -176 14 -176 2 0 -5 -5 -10 -11 -10
-5 0 -7 5 -3 11 4 7 -5 10 -27 8 -19 -2 -43 2 -54 9 -17 10 -18 13 -5 22 11 8
8 9 -15 6 -16 -2 -34 -5 -39 -5 -5 -1 -3 -8 4 -16 10 -12 10 -15 -4 -15 -9 0
-16 8 -16 20 0 11 -7 20 -16 20 -8 0 -13 4 -9 9 7 12 107 2 116 -11z m199 12
c0 -5 -17 -10 -37 -9 -31 0 -34 2 -18 9 28 12 55 12 55 0z m330 1 c0 -5 -13
-9 -30 -9 -16 1 -30 5 -30 10 0 4 14 8 30 8 17 0 30 -4 30 -9z m20 -36 c-16
-20 -5 -32 14 -16 8 7 23 10 34 7 10 -3 27 1 38 9 26 20 39 19 18 -2 -11 -11
-13 -18 -5 -21 14 -5 15 -32 1 -32 -5 0 -10 5 -10 11 0 5 -5 7 -12 3 -6 -4
-17 1 -24 11 -12 17 -15 17 -38 1 -31 -20 -46 -20 -46 -1 0 8 -8 15 -17 15
-24 0 -4 17 27 23 14 2 27 5 29 6 2 0 -2 -6 -9 -14z m-570 -29 c-7 -7 -13 -7
-20 0 -6 6 -3 10 10 10 13 0 16 -4 10 -10z m680 -46 c0 -5 -5 -10 -11 -10 -5
0 -8 -4 -4 -10 8 -13 35 -1 35 16 0 8 5 14 11 14 6 0 9 -13 7 -29 -1 -18 5
-37 17 -51 11 -12 15 -20 10 -18 -16 5 -17 -5 -6 -34 6 -15 8 -36 5 -45 -5
-15 -4 -15 5 -3 5 8 12 12 15 10 8 -9 -6 -60 -15 -54 -5 3 -9 -7 -9 -22 0 -23
-2 -25 -17 -13 -13 11 -17 11 -20 2 -3 -7 -9 -13 -15 -13 -5 0 -7 9 -3 20 7
21 -27 66 -42 57 -4 -3 -9 15 -10 40 -2 40 -1 43 14 31 14 -11 15 -10 10 12
-6 20 -4 19 7 -5 13 -26 15 -28 22 -11 4 11 2 21 -6 26 -7 4 -10 12 -6 18 3 5
-2 9 -11 8 -24 -2 -36 51 -15 64 22 12 32 12 32 0z m-103 -42 c-3 -8 -6 -5 -6
6 -1 11 2 17 5 13 3 -3 4 -12 1 -19z m62 -242 c-5 -5 -1 -15 9 -23 15 -11 13
-12 -11 -1 -17 7 -23 14 -16 18 6 4 10 10 10 14 -1 3 -1 14 0 24 0 14 2 14 9
-3 4 -11 4 -24 -1 -29z m686 -94 c-8 -8 -25 10 -19 20 4 6 9 5 15 -3 4 -7 6
-15 4 -17z m-594 -5 c-10 -9 -11 -8 -5 6 3 10 9 15 12 12 3 -3 0 -11 -7 -18z
m483 -9 c-40 -19 -79 -21 -79 -3 0 6 16 11 35 13 19 2 39 7 44 12 5 5 15 6 23
3 11 -4 4 -12 -23 -25z m151 23 c3 -5 1 -12 -5 -16 -5 -3 -10 1 -10 9 0 18 6
21 15 7z m-305 -11 c0 -5 -8 -10 -17 -10 -15 0 -16 2 -3 10 19 12 20 12 20 0z
m47 -26 c-3 -4 -14 -3 -24 0 -15 6 -15 8 -3 16 16 10 39 -4 27 -16z m-317 6
c0 -5 -2 -10 -4 -10 -3 0 -8 5 -11 10 -3 6 -1 10 4 10 6 0 11 -4 11 -10z m54
-5 c-7 -18 -30 -20 -40 -3 -5 8 -2 9 9 5 9 -3 19 -2 22 3 9 15 15 12 9 -5z
m46 -7 c0 -5 -6 -6 -12 -3 -7 4 -5 0 5 -8 21 -17 22 -27 2 -27 -8 0 -19 9 -25
20 -8 14 -8 20 0 20 6 0 8 4 5 10 -3 6 1 7 9 4 9 -3 16 -10 16 -16z m440 1 c0
-6 -4 -7 -10 -4 -5 3 -10 11 -10 16 0 6 5 7 10 4 6 -3 10 -11 10 -16z m-575 1
c3 -5 -1 -10 -9 -10 -9 0 -16 5 -16 10 0 6 4 10 9 10 6 0 13 -4 16 -10z m528
-7 c-7 -2 -19 -2 -25 0 -7 3 -2 5 12 5 14 0 19 -2 13 -5z m-453 -23 c0 -5 -4
-10 -10 -10 -5 0 -10 5 -10 10 0 6 5 10 10 10 6 0 10 -4 10 -10z m747 -33 c0
-7 -9 -13 -19 -13 -18 0 -18 1 -2 13 10 7 18 13 19 13 1 0 2 -6 2 -13z m-17
-47 c0 -5 -2 -10 -4 -10 -3 0 -8 5 -11 10 -3 6 -1 10 4 10 6 0 11 -4 11 -10z
m-360 -47 c0 -19 -63 -66 -74 -56 -3 4 4 11 17 17 12 6 26 21 32 34 12 26 25
29 25 5z m-445 -63 c-3 -5 -10 -10 -16 -10 -5 0 -9 5 -9 10 0 6 7 10 16 10 8
0 12 -4 9 -10z m82 -12 c-3 -8 -6 -5 -6 6 -1 11 2 17 5 13 3 -3 4 -12 1 -19z
m63 -62 c0 -13 -47 -32 -57 -22 -3 3 29 24 55 35 1 1 2 -5 2 -13z m90 3 c11
-8 12 -12 2 -16 -6 -2 -10 -9 -6 -14 9 -16 -37 -10 -53 7 -14 13 -14 17 -2 25
19 12 41 11 59 -2z m-70 -153 c0 -2 -7 -9 -15 -16 -13 -11 -14 -10 -9 4 5 14
24 23 24 12z m-220 -46 c0 -16 -30 -38 -30 -22 0 4 -3 17 -6 29 -5 18 -3 21
15 16 12 -3 21 -13 21 -23z m150 -101 c0 -17 -18 -9 -35 17 l-16 25 25 -16
c14 -10 26 -21 26 -26z"/>
<path d="M2772 4352 c-9 -6 -10 -16 -4 -32 9 -24 9 -23 14 8 2 18 4 32 4 32
-1 0 -7 -4 -14 -8z"/>
<path d="M2593 4455 c2 -34 10 -44 22 -26 3 5 1 12 -4 16 -5 3 -8 14 -6 25 2
11 0 20 -6 20 -5 0 -8 -16 -6 -35z"/>
<path d="M1776 4467 c3 -10 9 -15 12 -12 3 3 0 11 -7 18 -10 9 -11 8 -5 -6z"/>
<path d="M1810 4440 c0 -24 93 -98 156 -125 75 -32 85 -35 79 -25 -4 6 11 2
32 -9 41 -22 63 -27 163 -41 87 -12 267 -12 275 0 3 5 0 22 -8 37 -8 15 -12
34 -10 40 3 7 -2 19 -10 27 -11 12 -22 13 -58 4 -49 -13 -298 5 -384 27 -45
11 -173 53 -217 70 -11 5 -18 3 -18 -5z"/>
<path d="M1980 4180 c0 -5 9 -14 20 -20 11 -6 18 -15 15 -21 -4 -5 0 -9 7 -9
7 0 44 -16 81 -35 37 -19 78 -35 90 -35 12 0 56 -6 97 -15 60 -12 249 -19 338
-13 18 2 15 13 -15 50 -15 18 -28 35 -30 37 -2 2 -54 3 -115 2 -181 -3 -311
14 -455 58 -19 5 -33 6 -33 1z"/>
<path d="M3735 3792 c-2 -2 -37 -7 -77 -9 -40 -3 -81 -9 -92 -15 -13 -7 -16
-7 -11 2 5 8 -9 10 -52 5 -109 -11 -143 -16 -148 -24 -2 -5 -16 -6 -30 -3 -24
4 -26 1 -29 -30 -1 -7 -11 -23 -23 -37 -13 -13 -23 -29 -23 -36 0 -7 -7 -18
-15 -25 -20 -16 -19 -40 1 -40 10 0 14 6 11 14 -6 14 10 36 27 36 5 0 2 -6 -8
-13 -16 -12 -16 -13 3 -13 24 0 28 24 6 32 -8 4 -15 10 -15 15 0 6 8 5 20 -1
23 -12 66 -103 50 -108 -5 -2 -10 -10 -10 -17 0 -7 -8 -16 -17 -19 -15 -6 -15
-8 -3 -16 11 -7 17 -4 22 11 6 16 15 20 35 16 16 -2 22 -2 16 0 -18 6 -16 32
2 29 20 -3 55 -46 55 -68 0 -11 4 -17 9 -14 11 7 33 -18 25 -27 -8 -8 42 -21
53 -14 4 3 8 -15 8 -39 0 -24 -3 -44 -7 -44 -5 0 -8 -7 -8 -15 0 -8 6 -14 13
-13 6 2 12 -6 12 -17 0 -25 13 -35 47 -35 20 0 26 -4 22 -15 -7 -18 14 -47 27
-39 17 10 9 -5 -13 -26 -17 -16 -18 -20 -6 -20 9 0 19 -11 22 -25 5 -18 11
-23 24 -18 16 7 16 6 0 -11 -10 -9 -22 -25 -28 -34 -8 -12 -13 -14 -16 -4 -3
6 -13 12 -22 12 -26 1 -47 22 -50 53 -4 33 5 35 18 5 6 -17 9 -19 9 -6 1 11 6
15 16 12 28 -11 16 19 -19 46 -18 13 -19 13 -12 0 4 -9 1 -8 -7 3 -17 21 -27
22 -27 2 0 -18 -21 -20 -39 -2 -11 10 -13 9 -7 -3 4 -8 0 -6 -9 5 -9 11 -24
19 -35 17 -18 -3 -47 33 -42 51 1 5 -2 6 -7 3 -5 -3 -11 0 -14 7 -3 6 -19 20
-36 30 -30 18 -31 18 -31 -2 0 -24 -13 -33 -35 -25 -14 6 -14 9 4 26 12 10 21
24 21 29 0 6 -12 -2 -27 -18 -16 -16 -33 -32 -40 -34 -7 -2 7 -29 35 -66 29
-40 49 -60 56 -53 10 10 -11 43 -24 35 -12 -8 -19 20 -9 36 8 12 11 11 20 -3
5 -10 16 -18 23 -18 7 0 18 -15 23 -32 5 -18 15 -32 21 -31 6 2 10 -6 9 -17
-1 -11 -5 -19 -10 -17 -5 1 -8 6 -7 11 2 10 -29 30 -36 24 -7 -8 27 -48 42
-48 8 0 13 -4 10 -9 -3 -4 2 -17 10 -27 15 -18 15 -18 11 4 -5 20 -3 21 9 11
9 -7 13 -20 11 -29 -10 -38 11 -51 76 -49 34 0 78 5 97 10 19 4 47 10 61 13
29 6 45 42 28 62 -5 6 -7 19 -3 28 3 9 1 16 -5 16 -6 0 -11 7 -11 15 0 8 7 15
15 15 8 0 15 4 15 8 0 10 -63 57 -72 54 -4 -1 -3 9 2 22 5 13 6 27 2 32 -4 4
0 3 8 -1 13 -8 90 -8 99 0 1 2 0 9 -4 16 -4 6 -9 27 -10 46 -2 39 15 53 65 53
27 0 30 3 27 25 -1 14 -12 32 -22 41 -11 8 -14 13 -7 9 7 -4 12 0 12 10 0 9
-4 14 -9 10 -6 -3 -10 3 -10 12 -1 44 -7 79 -15 85 -5 3 -9 20 -9 37 0 17 -4
31 -8 31 -10 0 1 39 23 78 20 37 17 69 -7 69 -8 0 -17 -2 -20 -5z m-55 -46 c0
-2 -11 -6 -25 -8 -13 -3 -22 -1 -19 3 5 9 44 13 44 5z m-366 -60 c-3 -9 -12
-12 -22 -9 -15 6 -9 11 25 22 1 1 0 -5 -3 -13z m82 -1 c14 -13 13 -15 -4 -15
-10 0 -19 7 -19 15 0 8 2 15 4 15 3 0 11 -7 19 -15z m134 1 c0 -11 -19 -15
-25 -6 -3 5 1 10 9 10 9 0 16 -2 16 -4z m84 -11 c11 -1 22 -7 24 -13 5 -17
-55 -15 -65 2 -4 7 -15 16 -23 20 -8 3 -1 3 15 0 17 -4 39 -8 49 -9z m-266
-31 c-3 -14 -5 -12 -10 9 -3 19 -2 25 4 19 6 -6 8 -18 6 -28z m92 -14 c0 -5
-4 -10 -10 -10 -5 0 -10 5 -10 10 0 6 5 10 10 10 6 0 10 -4 10 -10z m-73 -52
c-3 -8 -6 -5 -6 6 -1 11 2 17 5 13 3 -3 4 -12 1 -19z m210 -50 c-3 -8 -6 -5
-6 6 -1 11 2 17 5 13 3 -3 4 -12 1 -19z m-57 -24 c0 -14 -3 -14 -15 -4 -8 7
-15 14 -15 16 0 2 7 4 15 4 8 0 15 -7 15 -16z m80 -104 c0 -5 -4 -10 -10 -10
-5 0 -10 5 -10 10 0 6 5 10 10 10 6 0 10 -4 10 -10z m44 -62 c6 -4 0 -8 -15
-8 -16 0 -26 6 -26 15 0 8 4 12 9 9 4 -3 8 1 9 8 0 9 2 8 6 -2 3 -8 11 -18 17
-22z m-54 7 c0 -8 -4 -15 -9 -15 -5 0 -11 7 -15 15 -3 9 0 15 9 15 8 0 15 -7
15 -15z m-310 -90 c0 -2 -3 -11 -6 -19 -5 -13 -9 -14 -20 -5 -8 6 -11 15 -8
20 3 5 0 9 -6 9 -6 0 -8 5 -5 10 6 9 45 -4 45 -15z m80 16 c0 -6 -4 -13 -10
-16 -5 -3 -10 1 -10 9 0 9 5 16 10 16 6 0 10 -4 10 -9z m4 -46 c3 -8 1 -15 -4
-15 -6 0 -10 7 -10 15 0 8 2 15 4 15 2 0 6 -7 10 -15z m41 -75 c3 -5 1 -10 -4
-10 -6 0 -11 5 -11 10 0 6 2 10 4 10 3 0 8 -4 11 -10z m11 -51 c19 -22 19 -22
-3 -8 -13 8 -23 17 -23 21 0 12 6 9 26 -13z m32 -14 c-3 -3 -9 2 -12 12 -6 14
-5 15 5 6 7 -7 10 -15 7 -18z m62 11 c0 -11 -19 -15 -25 -6 -3 5 1 10 9 10 9
0 16 -2 16 -4z"/>
<path d="M2704 3745 c-4 -8 -4 -22 0 -30 3 -8 1 -15 -4 -15 -6 0 -10 -4 -10
-10 0 -5 7 -10 15 -10 11 0 15 11 15 40 0 41 -6 51 -16 25z"/>
<path d="M2580 3726 c0 -16 18 -31 27 -22 3 3 -2 12 -11 21 -14 14 -16 14 -16
1z"/>
<path d="M2579 3691 c8 -6 9 -10 2 -12 -7 -3 -6 -13 4 -33 11 -20 12 -33 6
-39 -7 -7 -14 -2 -20 14 -5 13 -10 20 -11 14 -1 -5 -4 -23 -6 -38 l-5 -28 28
18 c35 23 66 53 60 59 -3 3 -14 6 -25 7 -16 1 -18 5 -11 18 6 12 4 19 -7 23
-23 9 -31 7 -15 -3z"/>
<path d="M2620 3696 c0 -2 7 -7 16 -10 8 -3 12 -2 9 4 -6 10 -25 14 -25 6z"/>
<path d="M3985 3631 c8 -18 12 -92 11 -249 -1 -186 -3 -224 -16 -232 -8 -5
-13 -10 -10 -10 45 -5 200 -3 200 2 0 5 -6 8 -14 8 -21 0 -26 23 -26 135 0 70
4 106 12 111 17 11 159 7 171 -5 5 -5 8 -55 5 -116 -3 -91 -6 -109 -23 -121
-10 -8 -15 -14 -9 -14 107 -5 211 -3 208 2 -3 5 -11 8 -18 8 -8 0 -16 10 -20
23 -8 32 -7 440 2 452 4 6 18 15 32 22 20 8 1 11 -94 12 -105 1 -117 -1 -100
-13 17 -13 19 -27 19 -118 l0 -103 -94 -3 -93 -3 3 116 4 115 -65 1 c-36 0
-72 2 -81 4 -14 2 -15 -1 -4 -24z"/>
<path d="M4158 3653 c7 -3 16 -2 19 1 4 3 -2 6 -13 5 -11 0 -14 -3 -6 -6z"/>
<path d="M4588 3643 c22 -15 22 -18 22 -254 l0 -238 -22 -4 c-13 -2 75 -5 195
-6 l217 -1 2 60 c1 33 2 70 2 82 1 12 -5 23 -11 26 -9 2 -13 -9 -13 -36 0 -55
-7 -68 -44 -91 -22 -14 -54 -21 -106 -23 l-75 -3 -3 117 c-3 133 -2 134 78
120 39 -6 46 -12 55 -39 19 -59 25 -47 25 51 0 62 -4 95 -10 91 -5 -3 -10 -15
-10 -25 0 -44 -10 -50 -76 -50 l-64 0 0 104 c0 121 -2 118 97 109 88 -7 109
-21 118 -75 13 -80 24 -76 25 8 l0 81 -37 6 c-21 3 -117 6 -213 6 -163 0 -173
-1 -152 -16z"/>
<path d="M5088 3642 c22 -17 22 -18 20 -252 l-3 -234 -25 -7 c-15 -4 11 -8 65
-9 50 -1 104 -3 120 -6 l30 -4 -22 16 c-21 15 -23 24 -23 125 l0 109 28 0 c40
0 57 -18 77 -80 22 -70 60 -137 86 -150 30 -17 159 -26 159 -11 0 6 -4 11 -10
11 -12 0 -42 58 -71 135 -16 44 -30 61 -62 82 l-41 26 45 16 c54 20 82 66 75
124 -11 90 -81 118 -311 123 -153 3 -159 2 -137 -14z m272 -30 c38 -28 51 -61
46 -112 -6 -61 -48 -100 -110 -100 l-44 0 -4 98 c-3 53 -1 108 4 121 7 21 13
23 46 18 20 -4 48 -15 62 -25z"/>
<path d="M5660 3649 c0 -3 12 -11 26 -18 25 -11 26 -15 20 -58 -3 -25 -6 -129
-6 -230 l0 -183 -25 -10 c-14 -5 -25 -11 -25 -13 0 -6 131 0 137 7 3 3 -5 6
-18 6 -13 0 -28 4 -34 8 -6 4 -10 89 -10 219 0 204 1 212 17 190 10 -12 20
-31 24 -42 3 -11 35 -87 69 -170 35 -82 70 -167 79 -187 8 -21 21 -38 28 -38
7 0 26 36 42 83 16 45 33 87 37 93 5 6 21 45 34 85 36 106 67 179 77 179 9 0
11 -380 2 -404 -3 -9 -12 -16 -20 -16 -8 0 -14 -3 -14 -7 0 -5 47 -8 104 -8
l104 0 -19 24 c-17 22 -19 44 -19 242 l0 217 28 20 27 21 -90 -2 -90 -2 -21
-45 c-20 -42 -46 -104 -96 -237 -11 -29 -24 -53 -28 -53 -4 0 -14 17 -23 38
-55 128 -96 231 -102 255 -4 15 -12 31 -19 35 -13 8 -196 10 -196 1z"/>
<path d="M6410 3643 c19 -13 20 -25 20 -250 l0 -235 -22 -6 c-24 -7 363 -20
395 -13 15 3 17 15 17 90 -1 85 -11 94 -24 20 -10 -56 -45 -82 -124 -90 -105
-12 -102 -16 -102 117 0 130 1 132 77 118 42 -8 48 -13 55 -41 5 -18 13 -33
18 -33 10 0 18 160 8 166 -4 3 -14 -11 -22 -31 -15 -35 -16 -35 -76 -35 l-61
0 3 108 3 107 84 -2 c98 -3 108 -10 125 -78 7 -25 16 -45 21 -43 9 3 8 125 -1
140 -3 4 -97 7 -209 6 -179 -1 -202 -3 -185 -15z"/>
<path d="M6983 3617 c-43 -41 -45 -46 -50 -110 -6 -65 -5 -67 26 -96 17 -16
77 -52 134 -81 56 -28 112 -62 124 -76 21 -23 22 -28 10 -57 -18 -42 -51 -59
-105 -53 -86 11 -159 68 -182 143 -22 71 -24 68 -30 -37 -3 -58 -5 -106 -4
-108 1 -1 15 5 31 15 29 16 32 16 84 -6 122 -53 226 -34 282 51 24 37 28 51
24 96 -6 78 -26 99 -157 163 -63 31 -123 65 -132 75 -36 36 -10 94 49 109 36
9 130 -23 152 -51 10 -13 21 -42 25 -65 10 -61 23 -37 28 49 4 74 3 78 -21 63
-8 -5 -34 -3 -65 5 -28 8 -79 14 -114 14 -61 0 -65 -2 -109 -43z"/>
<path d="M3264 3579 c-6 -11 13 -39 27 -39 5 0 9 9 9 19 0 21 -26 36 -36 20z"/>
<path d="M3191 3546 c-6 -7 -9 -24 -7 -37 3 -13 5 -26 5 -29 1 -3 5 2 11 10 5
8 12 11 16 7 4 -4 3 -12 -4 -19 -13 -13 -46 8 -36 23 3 5 3 9 0 9 -3 0 -17
-23 -32 -51 -29 -59 -27 -80 16 -126 42 -47 68 -43 35 4 -14 19 -13 21 3 18 9
-1 16 -9 14 -18 -4 -24 16 -30 27 -8 12 21 12 70 1 86 -12 16 -8 49 6 65 11
13 9 17 -17 29 -22 10 -28 18 -24 32 7 22 2 24 -14 5z m-1 -94 c-6 -2 -7 -9
-3 -15 3 -7 2 -8 -3 -4 -5 5 -9 12 -9 15 0 4 -4 13 -9 20 -7 11 -4 11 13 0 12
-7 17 -14 11 -16z"/>
<path d="M3374 3477 c-3 -9 -3 -21 1 -27 3 -5 1 -10 -4 -10 -6 0 -11 -4 -11
-10 0 -18 25 -11 38 11 12 18 11 24 -2 37 -14 14 -16 14 -22 -1z"/>
<path d="M3264 3384 c1 -19 6 -34 13 -34 6 0 9 9 5 22 -3 14 -2 19 6 14 7 -4
12 -3 12 1 0 5 -8 13 -18 20 -17 10 -18 7 -18 -23z"/>
<path d="M3440 3330 c0 -27 -4 -50 -10 -50 -5 0 -10 -4 -10 -10 0 -5 8 -10 19
-10 16 0 17 6 13 50 -4 50 -4 50 24 50 22 0 26 3 14 10 -36 23 -50 12 -50 -40z"/>
<path d="M2923 3343 c1 -10 6 -24 11 -31 4 -8 3 -11 -4 -10 -7 2 -14 -7 -16
-20 -2 -14 0 -21 6 -17 5 3 10 2 10 -4 0 -5 -6 -12 -12 -14 -7 -3 -4 -6 7 -7
18 -1 19 -1 3 -11 -19 -11 -25 -39 -8 -39 5 0 7 7 4 15 -4 10 0 15 12 15 16 0
17 -2 4 -10 -13 -9 -13 -10 0 -10 9 -1 5 -6 -10 -15 -23 -13 -24 -14 -6 -21
18 -7 18 -7 0 -22 -18 -13 -18 -14 5 -7 21 6 23 5 17 -11 -6 -15 -5 -16 5 -7
9 9 8 18 -5 37 -9 15 -12 26 -7 26 5 0 13 -5 16 -10 4 -6 12 -10 18 -9 23 3
37 -1 37 -10 0 -4 -11 -6 -25 -3 -19 3 -24 1 -20 -10 3 -8 -1 -21 -10 -28 -14
-12 -18 -11 -26 1 -6 9 -9 10 -9 2 0 -7 10 -17 21 -24 17 -9 20 -8 13 3 -6 11
-5 11 9 -1 19 -15 23 -56 7 -66 -6 -3 -14 4 -19 17 -6 13 -10 18 -10 11 -3
-54 156 -219 190 -197 7 4 9 3 6 -3 -8 -13 20 -26 36 -16 7 3 8 2 4 -3 -9 -10
301 -167 314 -158 13 7 11 25 -5 56 -8 15 -17 40 -21 57 -4 17 -10 29 -15 26
-4 -3 -6 4 -3 15 3 11 1 26 -4 33 -5 6 -16 31 -23 55 -8 24 -22 49 -32 57 -11
7 -42 35 -71 62 -29 27 -92 82 -142 123 -49 41 -122 102 -161 137 -73 65 -96
76 -91 46z m117 -203 c0 -5 -4 -10 -10 -10 -5 0 -10 5 -10 10 0 6 5 10 10 10
6 0 10 -4 10 -10z m105 -19 c-6 -5 -25 10 -25 20 0 5 6 4 14 -3 8 -7 12 -15
11 -17z m-71 -8 c8 -8 13 -9 44 -12 10 -1 13 -4 6 -9 -6 -4 -13 -15 -17 -25
-5 -14 -15 -18 -44 -15 -26 2 -37 -1 -35 -9 1 -7 -5 -13 -13 -13 -21 0 -19 17
5 42 13 14 20 17 20 8 0 -7 3 -10 7 -7 3 4 -2 16 -12 27 -18 20 -17 20 7 20
13 0 28 -3 32 -7z m145 -19 c2 -2 -10 -4 -27 -4 -18 0 -32 5 -32 10 0 9 47 4
59 -6z m14 -44 c-5 -19 -23 -29 -23 -12 0 7 20 32 26 32 1 0 0 -9 -3 -20z
m-83 -5 c-15 -18 -6 -33 28 -47 16 -6 22 -12 15 -15 -16 -6 -17 -34 -2 -30 6
1 14 -4 16 -10 7 -20 -32 -15 -61 8 -14 11 -26 26 -26 34 0 7 -7 18 -15 25
-22 18 -18 30 10 30 14 0 25 5 25 10 0 6 5 10 11 10 8 0 8 -4 -1 -15z m-104
-36 c3 -6 1 -22 -6 -35 -10 -18 -16 -21 -27 -13 -7 6 -13 18 -13 25 0 8 -5 14
-12 14 -6 0 -8 3 -5 7 4 3 16 -2 27 -12 11 -10 23 -15 28 -10 4 4 1 10 -5 12
-15 5 -17 23 -4 23 6 0 13 -5 17 -11z m224 -4 c0 -8 -4 -15 -10 -15 -5 0 -10
7 -10 15 0 8 5 15 10 15 6 0 10 -7 10 -15z m-161 -47 c1 -11 -11 -10 -28 1
-13 8 -13 12 -1 26 13 16 15 16 21 -2 4 -10 8 -21 8 -25z m211 28 c0 -2 -7 -7
-16 -10 -8 -3 -12 -2 -9 4 6 10 25 14 25 6z m-34 -42 c-6 -7 -15 -9 -21 -4 -5
4 -17 10 -25 12 -8 3 1 5 21 5 28 -1 34 -4 25 -13z m-211 -4 c-3 -5 -13 -10
-21 -10 -8 0 -14 5 -14 10 0 6 9 10 21 10 11 0 17 -4 14 -10z m265 -20 c0 -5
-4 -10 -10 -10 -5 0 -10 5 -10 10 0 6 5 10 10 10 6 0 10 -4 10 -10z m-172 -18
c2 -7 -5 -12 -17 -12 -14 0 -19 5 -14 15 6 17 25 15 31 -3z m77 -12 c-5 -14
-2 -20 9 -20 9 0 16 -4 16 -10 0 -5 -6 -10 -14 -10 -8 0 -18 5 -21 10 -3 6
-15 10 -26 10 -11 0 -18 -4 -14 -9 6 -11 -34 -6 -44 5 -3 4 2 4 11 1 12 -4 21
1 28 14 6 11 15 17 21 14 5 -4 9 -1 9 4 0 6 7 11 16 11 11 0 14 -6 9 -20z
m129 -31 c-8 -13 -24 -1 -24 18 0 13 3 13 15 3 8 -7 12 -16 9 -21z m-50 5 c8
-3 12 -12 10 -19 -5 -11 -11 -11 -30 -3 -41 19 -23 39 20 22z m-25 -45 c-16
-10 -23 -4 -14 10 3 6 11 8 17 5 6 -4 5 -9 -3 -15z m-34 -9 c3 -5 1 -10 -4
-10 -6 0 -11 5 -11 10 0 6 2 10 4 10 3 0 8 -4 11 -10z m49 -18 c3 -5 -1 -9 -9
-9 -8 0 -12 4 -9 9 3 4 7 8 9 8 2 0 6 -4 9 -8z m46 -22 c8 -5 11 -10 5 -10 -5
0 -17 5 -25 10 -8 5 -10 10 -5 10 6 0 17 -5 25 -10z"/>
<path d="M3136 2977 c3 -10 9 -15 12 -12 3 3 0 11 -7 18 -10 9 -11 8 -5 -6z"/>
<path d="M3500 3251 c0 -14 7 -18 24 -17 24 1 24 1 6 19 -24 22 -30 22 -30 -2z"/>
<path d="M3615 3090 c3 -5 8 -10 11 -10 2 0 4 5 4 10 0 6 -5 10 -11 10 -5 0
-7 -4 -4 -10z"/>
</g>
</svg>
